<svg width="16" height="16" viewBox="0 0 16 16" fill="none" xmlns="http://www.w3.org/2000/svg">
<path d="M13.9333 1.33325H2.06659C1.87209 1.33325 1.68557 1.41051 1.54804 1.54804C1.41051 1.68557 1.33325 1.87209 1.33325 2.06659V13.9333C1.33325 14.0296 1.35222 14.1249 1.38907 14.2139C1.42593 14.3029 1.47994 14.3837 1.54804 14.4518C1.61614 14.5199 1.69698 14.5739 1.78595 14.6108C1.87492 14.6476 1.97028 14.6666 2.06659 14.6666H8.45325V9.49992H6.71992V7.49992H8.45325V5.99992C8.41735 5.64776 8.45892 5.292 8.57506 4.95761C8.6912 4.62322 8.8791 4.31828 9.12556 4.06419C9.37203 3.8101 9.6711 3.61301 10.0018 3.48674C10.3325 3.36048 10.6868 3.30809 11.0399 3.33325C11.5588 3.33006 12.0774 3.35677 12.5933 3.41325V5.21325H11.5333C10.6933 5.21325 10.5333 5.61325 10.5333 6.19325V7.47992H12.5333L12.2733 9.47992H10.5333V14.6666H13.9333C14.0296 14.6666 14.1249 14.6476 14.2139 14.6108C14.3029 14.5739 14.3837 14.5199 14.4518 14.4518C14.5199 14.3837 14.5739 14.3029 14.6108 14.2139C14.6476 14.1249 14.6666 14.0296 14.6666 13.9333V2.06659C14.6666 1.97028 14.6476 1.87492 14.6108 1.78595C14.5739 1.69698 14.5199 1.61614 14.4518 1.54804C14.3837 1.47994 14.3029 1.42593 14.2139 1.38907C14.1249 1.35222 14.0296 1.33325 13.9333 1.33325Z" fill="black" fill-opacity="0.87"/>
</svg>
