<svg width="14" height="14" viewBox="0 0 14 14" fill="none" xmlns="http://www.w3.org/2000/svg">
<path d="M12.7866 6.76659C11.6083 4.03075 9.39158 2.33325 6.99992 2.33325C4.60825 2.33325 2.39158 4.03075 1.21325 6.76659C1.18113 6.84018 1.16455 6.91962 1.16455 6.99992C1.16455 7.08022 1.18113 7.15966 1.21325 7.23325C2.39158 9.96909 4.60825 11.6666 6.99992 11.6666C9.39158 11.6666 11.6083 9.96909 12.7866 7.23325C12.8187 7.15966 12.8353 7.08022 12.8353 6.99992C12.8353 6.91962 12.8187 6.84018 12.7866 6.76659ZM6.99992 10.4999C5.15075 10.4999 3.40075 9.16409 2.39158 6.99992C3.40075 4.83575 5.15075 3.49992 6.99992 3.49992C8.84908 3.49992 10.5991 4.83575 11.6083 6.99992C10.5991 9.16409 8.84908 10.4999 6.99992 10.4999ZM6.99992 4.66659C6.53843 4.66659 6.0873 4.80343 5.70359 5.05982C5.31987 5.31621 5.0208 5.68063 4.8442 6.10699C4.66759 6.53335 4.62139 7.00251 4.71142 7.45513C4.80145 7.90775 5.02368 8.32351 5.35 8.64984C5.67632 8.97616 6.09208 9.19839 6.54471 9.28842C6.99733 9.37845 7.46648 9.33224 7.89285 9.15564C8.31921 8.97903 8.68362 8.67996 8.94001 8.29625C9.1964 7.91253 9.33325 7.46141 9.33325 6.99992C9.33325 6.38108 9.08742 5.78759 8.64983 5.35C8.21225 4.91242 7.61876 4.66659 6.99992 4.66659ZM6.99992 8.16659C6.76917 8.16659 6.54361 8.09816 6.35175 7.96997C6.15989 7.84177 6.01036 7.65956 5.92206 7.44638C5.83376 7.2332 5.81065 6.99862 5.85567 6.77231C5.90068 6.546 6.0118 6.33812 6.17496 6.17496C6.33812 6.0118 6.546 5.90069 6.77231 5.85567C6.99862 5.81065 7.2332 5.83376 7.44638 5.92206C7.65956 6.01036 7.84177 6.1599 7.96996 6.35175C8.09816 6.54361 8.16658 6.76917 8.16658 6.99992C8.16658 7.30934 8.04367 7.60608 7.82487 7.82488C7.60608 8.04367 7.30934 8.16659 6.99992 8.16659Z" fill="white"/>
</svg>
