<svg width="18" height="18" viewBox="0 0 18 18" fill="none" xmlns="http://www.w3.org/2000/svg">
<path d="M6.75005 14.7657H7.26568V14.25V11.25V10.7344H6.75005H3.75006H3.23444V11.25V14.25V14.7657H3.75006H6.75005ZM14.25 7.26568H14.7657V6.75005V3.75006V3.23444H14.25H11.25H10.7344V3.75006V6.75005V7.26568H11.25H14.25ZM12.9844 12V12.5157H13.5H15C15.0622 12.5157 15.1218 12.5404 15.1658 12.5843L15.5304 12.2197L15.1658 12.5843C15.2097 12.6283 15.2344 12.6879 15.2344 12.75C15.2344 12.8122 15.2097 12.8718 15.1658 12.9158L15.5304 13.2804L15.1658 12.9158C15.1218 12.9597 15.0622 12.9844 15 12.9844H13.5H12.9844V13.5V15C12.9844 15.0622 12.9597 15.1218 12.9158 15.1658L13.2804 15.5304L12.9158 15.1658C12.8718 15.2097 12.8122 15.2344 12.75 15.2344C12.6879 15.2344 12.6283 15.2097 12.5843 15.1658L12.2197 15.5304L12.5843 15.1658C12.5404 15.1218 12.5157 15.0622 12.5157 15V13.5V12.9844H12H10.5C10.4379 12.9844 10.3783 12.9597 10.3343 12.9158C10.2904 12.8718 10.2657 12.8122 10.2657 12.75C10.2657 12.6879 10.2904 12.6283 10.3343 12.5843C10.3783 12.5404 10.4379 12.5157 10.5 12.5157H12H12.5157V12V10.5C12.5157 10.4379 12.5404 10.3783 12.5843 10.3343C12.6283 10.2904 12.6879 10.2657 12.75 10.2657C12.8122 10.2657 12.8718 10.2904 12.9158 10.3343C12.9597 10.3783 12.9844 10.4379 12.9844 10.5V12ZM6.75005 7.26568H7.26568V6.75005V3.75006V3.23444H6.75005H3.75006H3.23444V3.75006V6.75005V7.26568H3.75006H6.75005ZM3.00006 10.2657H7.50005C7.56221 10.2657 7.62182 10.2904 7.66578 10.3343C7.70973 10.3783 7.73442 10.4379 7.73442 10.5V15C7.73442 15.0622 7.70973 15.1218 7.66578 15.1658C7.62182 15.2097 7.56221 15.2344 7.50005 15.2344H3.00006C2.9379 15.2344 2.87829 15.2097 2.83433 15.1658C2.79038 15.1218 2.76569 15.0622 2.76569 15V10.5C2.76569 10.4379 2.79038 10.3783 2.83433 10.3343C2.87829 10.2904 2.9379 10.2657 3.00006 10.2657ZM10.5 2.76569H15C15.0622 2.76569 15.1218 2.79038 15.1658 2.83433C15.2097 2.87829 15.2344 2.9379 15.2344 3.00006V7.50005C15.2344 7.56221 15.2097 7.62182 15.1658 7.66578C15.1218 7.70973 15.0622 7.73442 15 7.73442H10.5C10.4379 7.73442 10.3783 7.70973 10.3343 7.66578C10.2904 7.62182 10.2657 7.56221 10.2657 7.50005V3.00006C10.2657 2.9379 10.2904 2.87829 10.3343 2.83433C10.3783 2.79038 10.4379 2.76569 10.5 2.76569ZM3.00006 2.76569H7.50005C7.56221 2.76569 7.62182 2.79038 7.66578 2.83433C7.70973 2.87829 7.73442 2.9379 7.73442 3.00006V7.50005C7.73442 7.56221 7.70973 7.62182 7.66578 7.66578C7.62182 7.70973 7.56221 7.73442 7.50005 7.73442H3.00006C2.9379 7.73442 2.87829 7.70973 2.83433 7.66578C2.79038 7.62182 2.76569 7.56221 2.76569 7.50005V3.00006C2.76569 2.9379 2.79038 2.87829 2.83433 2.83433C2.87829 2.79038 2.9379 2.76569 3.00006 2.76569Z" fill="white" stroke="white"/>
</svg>
