<svg width="16" height="16" viewBox="0 0 16 16" fill="none" xmlns="http://www.w3.org/2000/svg">
<path d="M15.3274 2.63339C15.3275 2.51563 15.2964 2.39996 15.2372 2.29815C15.1781 2.19634 15.093 2.11203 14.9906 2.05381C14.8883 1.99559 14.7723 1.96553 14.6545 1.9667C14.5368 1.96787 14.4215 2.00022 14.3203 2.06047C13.9301 2.29273 13.51 2.47059 13.0716 2.58914C12.4456 2.05196 11.6472 1.758 10.8223 1.76101C9.91734 1.76205 9.04821 2.11474 8.39843 2.7446C7.74865 3.37446 7.36908 4.23218 7.33987 5.13666C5.55585 4.85217 3.93895 3.92101 2.7975 2.52076C2.72872 2.43731 2.64089 2.37163 2.54141 2.32925C2.44192 2.28687 2.33371 2.26904 2.22589 2.27726C2.11813 2.28613 2.01415 2.32112 1.92295 2.3792C1.83175 2.43727 1.75606 2.5167 1.70245 2.61059C1.42746 3.09046 1.26953 3.62843 1.24148 4.18079C1.21342 4.73316 1.31604 5.28436 1.54099 5.78962L1.53969 5.79092C1.43858 5.85319 1.35515 5.94036 1.29736 6.04409C1.23956 6.14782 1.20935 6.26464 1.20961 6.38338C1.20838 6.48133 1.21426 6.57924 1.22719 6.67634C1.29528 7.51519 1.66704 8.30038 2.27276 8.88468C2.23167 8.96296 2.20659 9.04865 2.19899 9.13673C2.19139 9.22481 2.20141 9.31353 2.22849 9.3977C2.49256 10.2205 3.05415 10.9151 3.80336 11.3456C3.04219 11.64 2.22031 11.7426 1.41013 11.6444C1.26017 11.6256 1.10828 11.6583 0.979358 11.7372C0.850437 11.8161 0.752144 11.9364 0.700603 12.0785C0.649062 12.2205 0.647333 12.3759 0.6957 12.5191C0.744067 12.6622 0.839658 12.7847 0.966793 12.8664C2.36019 13.7639 3.98258 14.241 5.63997 14.2408C7.51948 14.262 9.35328 13.6614 10.8561 12.5324C12.359 11.4035 13.4466 9.8096 13.9498 7.99859C14.1852 7.20968 14.3054 6.3909 14.3066 5.56763C14.3066 5.52401 14.3066 5.47909 14.306 5.43417C14.654 5.05879 14.9237 4.6177 15.0991 4.13677C15.2745 3.65583 15.3521 3.14472 15.3274 2.63339ZM13.123 4.77466C13.0129 4.90489 12.9572 5.07253 12.9674 5.24276C12.9739 5.35276 12.9733 5.46343 12.9733 5.56763C12.9719 6.26332 12.8699 6.95516 12.6705 7.62167C12.2595 9.1626 11.3433 10.521 10.0686 11.4794C8.79389 12.4378 7.23443 12.9406 5.63997 12.9075C5.06722 12.9077 4.49645 12.8403 3.93945 12.707C4.64973 12.4781 5.31385 12.1252 5.90104 11.6646C6.00919 11.5795 6.08834 11.4629 6.12763 11.331C6.16692 11.1991 6.16443 11.0583 6.12049 10.9278C6.07655 10.7974 5.99332 10.6837 5.88223 10.6024C5.77113 10.5212 5.6376 10.4763 5.49997 10.4739C4.94586 10.4653 4.41673 10.2419 4.02406 9.85084C4.12367 9.83196 4.22263 9.80852 4.32094 9.78052C4.46495 9.73953 4.59097 9.65127 4.67871 9.52995C4.76646 9.40863 4.81082 9.2613 4.80465 9.1117C4.79849 8.9621 4.74216 8.81893 4.64473 8.70524C4.5473 8.59155 4.41444 8.51395 4.26755 8.48495C3.94591 8.42143 3.64325 8.28459 3.3831 8.08507C3.12294 7.88555 2.9123 7.62873 2.76755 7.33456C2.88804 7.351 3.00929 7.36121 3.13083 7.36516C3.27522 7.36734 3.41656 7.32354 3.53442 7.24009C3.65227 7.15665 3.74053 7.03788 3.78643 6.90096C3.83042 6.7628 3.82816 6.61407 3.77999 6.47732C3.73182 6.34056 3.64037 6.22324 3.51951 6.14315C3.22627 5.9478 2.98607 5.68276 2.82041 5.37179C2.65475 5.06081 2.56881 4.7136 2.57029 4.36126C2.57029 4.31699 2.57159 4.27272 2.57419 4.2291C4.06837 5.6226 6.00641 6.44406 8.04686 6.54876C8.14986 6.55281 8.25243 6.53341 8.34683 6.49202C8.44123 6.45063 8.52499 6.38833 8.59179 6.30982C8.65791 6.23056 8.70472 6.13703 8.72856 6.0366C8.75239 5.93616 8.75258 5.83157 8.72912 5.73105C8.69099 5.57196 8.67155 5.40896 8.67118 5.24537C8.67179 4.67506 8.89861 4.12828 9.30188 3.72501C9.70515 3.32174 10.2519 3.09492 10.8222 3.09432C11.1157 3.09354 11.4061 3.15359 11.6751 3.27069C11.9442 3.38779 12.186 3.55939 12.3854 3.77466C12.4623 3.85738 12.5591 3.91906 12.6665 3.95382C12.774 3.98858 12.8885 3.99527 12.9993 3.97326C13.2732 3.91996 13.5431 3.84818 13.8073 3.75842C13.6271 4.12706 13.3968 4.46905 13.123 4.77466Z" fill="black" fill-opacity="0.87"/>
</svg>
