<svg width="14" height="14" viewBox="0 0 14 14" fill="none" xmlns="http://www.w3.org/2000/svg">
<path d="M6.99992 7.58341C6.82232 7.58134 6.64835 7.63372 6.50143 7.73351C6.3545 7.8333 6.24167 7.9757 6.17813 8.14155C6.11458 8.3074 6.10337 8.48874 6.14601 8.66116C6.18864 8.83357 6.28307 8.98879 6.41659 9.10591V9.91675C6.41659 10.0715 6.47804 10.2198 6.58744 10.3292C6.69684 10.4386 6.84521 10.5001 6.99992 10.5001C7.15463 10.5001 7.303 10.4386 7.4124 10.3292C7.52179 10.2198 7.58325 10.0715 7.58325 9.91675V9.10591C7.71677 8.98879 7.8112 8.83357 7.85383 8.66116C7.89647 8.48874 7.88526 8.3074 7.82171 8.14155C7.75817 7.9757 7.64534 7.8333 7.49841 7.73351C7.35149 7.63372 7.17752 7.58134 6.99992 7.58341ZM9.91659 5.25008V4.08341C9.91659 3.30987 9.60929 2.568 9.06231 2.02102C8.51533 1.47404 7.77347 1.16675 6.99992 1.16675C6.22637 1.16675 5.48451 1.47404 4.93752 2.02102C4.39054 2.568 4.08325 3.30987 4.08325 4.08341V5.25008C3.61912 5.25008 3.174 5.43446 2.84582 5.76264C2.51763 6.09083 2.33325 6.53595 2.33325 7.00008V11.0834C2.33325 11.5475 2.51763 11.9927 2.84582 12.3209C3.174 12.649 3.61912 12.8334 4.08325 12.8334H9.91659C10.3807 12.8334 10.8258 12.649 11.154 12.3209C11.4822 11.9927 11.6666 11.5475 11.6666 11.0834V7.00008C11.6666 6.53595 11.4822 6.09083 11.154 5.76264C10.8258 5.43446 10.3807 5.25008 9.91659 5.25008ZM5.24992 4.08341C5.24992 3.61929 5.43429 3.17417 5.76248 2.84598C6.09067 2.51779 6.53579 2.33341 6.99992 2.33341C7.46405 2.33341 7.90917 2.51779 8.23736 2.84598C8.56554 3.17417 8.74992 3.61929 8.74992 4.08341V5.25008H5.24992V4.08341ZM10.4999 11.0834C10.4999 11.2381 10.4385 11.3865 10.3291 11.4959C10.2197 11.6053 10.0713 11.6667 9.91659 11.6667H4.08325C3.92854 11.6667 3.78017 11.6053 3.67077 11.4959C3.56138 11.3865 3.49992 11.2381 3.49992 11.0834V7.00008C3.49992 6.84537 3.56138 6.697 3.67077 6.5876C3.78017 6.47821 3.92854 6.41675 4.08325 6.41675H9.91659C10.0713 6.41675 10.2197 6.47821 10.3291 6.5876C10.4385 6.697 10.4999 6.84537 10.4999 7.00008V11.0834Z" fill="white"/>
</svg>
