<svg width="20" height="14" viewBox="0 0 20 14" fill="none" xmlns="http://www.w3.org/2000/svg">
<path d="M18.8889 4.03389L12.2222 0.511562C11.6111 0.182128 10.82 0 10 0C9.18011 0 8.38896 0.182128 7.77783 0.511562L1.11121 4.03389C0.758287 4.22411 0.476658 4.45747 0.285072 4.71842C0.0934866 4.97938 -0.00365837 5.26193 0.000105326 5.54728V11.4C0.000105326 11.9328 0.351292 12.4437 0.976409 12.8205C1.60153 13.1972 2.44937 13.4089 3.33342 13.4089H16.6667C17.5507 13.4089 18.3985 13.1972 19.0237 12.8205C19.6488 12.4437 20 11.9328 20 11.4V5.54058C20.0021 5.25636 19.9042 4.9751 19.7127 4.71537C19.5212 4.45564 19.2404 4.22336 18.8889 4.03389ZM12.2222 12.0696H7.77783V8.72139C7.77783 8.54379 7.89489 8.37346 8.10326 8.24788C8.31164 8.1223 8.59425 8.05174 8.88893 8.05174H11.1111C11.4058 8.05174 11.6884 8.1223 11.8968 8.24788C12.1052 8.37346 12.2222 8.54379 12.2222 8.72139V12.0696ZM17.7778 11.4C17.7778 11.5776 17.6607 11.7479 17.4523 11.8735C17.2439 11.9991 16.9613 12.0696 16.6667 12.0696H14.4444V8.72139C14.4444 8.18859 14.0933 7.67761 13.4681 7.30086C12.843 6.92411 11.9952 6.71246 11.1111 6.71246H8.88893C8.00488 6.71246 7.15704 6.92411 6.53192 7.30086C5.90681 7.67761 5.55562 8.18859 5.55562 8.72139V12.0696H3.33342C3.03873 12.0696 2.75612 11.9991 2.54775 11.8735C2.33937 11.7479 2.22231 11.5776 2.22231 11.4V5.54058C2.22251 5.4455 2.2563 5.35154 2.32144 5.26494C2.38658 5.17835 2.48157 5.1011 2.60009 5.03835L9.26671 1.52272C9.46947 1.41537 9.73014 1.35616 10 1.35616C10.2699 1.35616 10.5306 1.41537 10.7334 1.52272L17.4 5.03835C17.5185 5.1011 17.6135 5.17835 17.6786 5.26494C17.7438 5.35154 17.7776 5.4455 17.7778 5.54058V11.4Z" fill="black" fill-opacity="0.87"/>
</svg>
