<svg width="18" height="18" viewBox="0 0 18 18" fill="none" xmlns="http://www.w3.org/2000/svg">
<path d="M12.2344 3.00004V3.51566H12.75H15C15.0622 3.51566 15.1218 3.54035 15.1658 3.58431C15.2097 3.62826 15.2344 3.68788 15.2344 3.75004V14.25C15.2344 14.71 15.0517 15.1511 14.7264 15.4764C14.4012 15.8017 13.96 15.9844 13.5 15.9844H4.50006C4.04007 15.9844 3.59893 15.8017 3.27367 15.4764C2.94841 15.1511 2.76569 14.71 2.76569 14.25V3.75004C2.76569 3.68788 2.79038 3.62826 2.83433 3.58431C2.87829 3.54035 2.9379 3.51566 3.00006 3.51566H5.25006H5.76568V3.00004V2.25004C5.76568 2.18788 5.79037 2.12827 5.83433 2.08431C5.87828 2.04036 5.93789 2.01567 6.00005 2.01567C6.06221 2.01567 6.12183 2.04036 6.16578 2.08431C6.20973 2.12827 6.23443 2.18788 6.23443 2.25004V3.00004V3.51566H6.75005H8.25005H8.76567V3.00004V2.25004C8.76567 2.18788 8.79036 2.12827 8.83432 2.08431C8.87827 2.04036 8.93789 2.01567 9.00005 2.01567C9.06221 2.01567 9.12182 2.04036 9.16577 2.08431C9.20973 2.12827 9.23442 2.18788 9.23442 2.25004V3.00004V3.51566H9.75004H11.25H11.7657V3.00004V2.25004C11.7657 2.18788 11.7904 2.12827 11.8343 2.08431C11.8783 2.04036 11.9379 2.01567 12 2.01567C12.0622 2.01567 12.1218 2.04036 12.1658 2.08431C12.2097 2.12827 12.2344 2.18788 12.2344 2.25004V3.00004ZM3.75006 3.98441H3.23444V4.50003V14.25C3.23444 14.5857 3.36778 14.9076 3.60513 15.1449C3.84248 15.3823 4.1644 15.5156 4.50006 15.5156H13.5C13.8357 15.5156 14.1576 15.3823 14.395 15.1449C14.6323 14.9076 14.7657 14.5857 14.7657 14.25V4.50003V3.98441H14.25H12.75H12.2344V4.50003V5.25003C12.2344 5.31219 12.2097 5.37181 12.1658 5.41576C12.1218 5.45971 12.0622 5.48441 12 5.48441C11.9379 5.48441 11.8783 5.45971 11.8343 5.41576C11.7904 5.37181 11.7657 5.31219 11.7657 5.25003V4.50003V3.98441H11.25H9.75004H9.23442V4.50003V5.25003C9.23442 5.31219 9.20973 5.37181 9.16577 5.41576C9.12182 5.45971 9.06221 5.48441 9.00005 5.48441C8.93789 5.48441 8.87827 5.45971 8.83432 5.41576C8.79036 5.37181 8.76567 5.31219 8.76567 5.25003V4.50003V3.98441H8.25005H6.75005H6.23443V4.50003V5.25003C6.23443 5.31219 6.20974 5.37181 6.16578 5.41576C6.12183 5.45971 6.06221 5.48441 6.00005 5.48441C5.93789 5.48441 5.87828 5.45971 5.83433 5.41576C5.79037 5.37181 5.76568 5.31219 5.76568 5.25003V4.50003V3.98441H5.25006H3.75006ZM5.83433 11.0843C5.87828 11.0403 5.93789 11.0156 6.00005 11.0156H12C12.0622 11.0156 12.1218 11.0403 12.1658 11.0843C12.2097 11.1282 12.2344 11.1879 12.2344 11.25C12.2344 11.3122 12.2097 11.3718 12.1658 11.4157C12.1218 11.4597 12.0622 11.4844 12 11.4844H6.00005C5.93789 11.4844 5.87828 11.4597 5.83433 11.4157C5.79037 11.3718 5.76568 11.3122 5.76568 11.25C5.76568 11.1879 5.79037 11.1282 5.83433 11.0843ZM7.33432 8.0843C7.37828 8.04034 7.43789 8.01565 7.50005 8.01565H12C12.0622 8.01565 12.1218 8.04034 12.1658 8.0843C12.2097 8.12825 12.2344 8.18786 12.2344 8.25002C12.2344 8.31219 12.2097 8.3718 12.1658 8.41575L12.5304 8.78035L12.1658 8.41575C12.1218 8.45971 12.0622 8.4844 12 8.4844H7.50005C7.43789 8.4844 7.37828 8.45971 7.33432 8.41575C7.29037 8.3718 7.26568 8.31218 7.26568 8.25002C7.26568 8.18787 7.29037 8.12825 7.33432 8.0843Z" fill="white" stroke="white"/>
</svg>
