<svg width="18" height="18" viewBox="0 0 18 18" fill="none" xmlns="http://www.w3.org/2000/svg">
<path d="M10.5324 8.1529L10.165 8.61216L10.6684 8.91634C11.247 9.26594 11.7015 9.78804 11.968 10.4093C11.9919 10.4662 11.9922 10.5303 11.9691 10.5876C11.9463 10.644 11.9025 10.6892 11.847 10.7139C11.8154 10.7262 11.782 10.7331 11.7481 10.7343C11.7038 10.7334 11.6606 10.7199 11.6236 10.6954C11.5853 10.6699 11.5553 10.6338 11.5373 10.5914L11.5366 10.5897C11.3241 10.093 10.9708 9.6694 10.5202 9.37123C10.0697 9.07306 9.54171 8.91338 9.00145 8.91188L8.99692 8.91191C8.45823 8.91518 7.93222 9.0757 7.4835 9.37376C7.03477 9.67182 6.68286 10.0944 6.47098 10.5897L6.46672 10.5997L6.46288 10.6098C6.45171 10.6393 6.43469 10.6662 6.41286 10.689C6.39102 10.7118 6.36481 10.7299 6.33581 10.7423C6.3068 10.7547 6.2756 10.7611 6.24405 10.7611C6.21251 10.7612 6.18128 10.7549 6.15224 10.7425C6.1232 10.7302 6.09694 10.7122 6.07504 10.6895C6.05314 10.6668 6.03605 10.6399 6.02479 10.6104L5.54315 10.7945L6.02479 10.6104C6.01353 10.581 6.00833 10.5495 6.0095 10.518C6.01068 10.4865 6.01821 10.4555 6.03163 10.427L6.03565 10.4185L6.03935 10.4098C6.30412 9.78889 6.7565 9.26639 7.3331 8.9155L7.83395 8.6107L7.46767 8.1529C7.19953 7.81776 7.0518 7.40225 7.04818 6.9731C7.04869 6.45613 7.25427 5.96044 7.61987 5.59485C7.98591 5.2288 8.48238 5.02316 9.00005 5.02316C9.51771 5.02316 10.0142 5.2288 10.3802 5.59485C10.7458 5.96045 10.9514 6.45616 10.9519 6.97315C10.9483 7.40228 10.8006 7.81777 10.5324 8.1529ZM8.7178 5.50402L8.81372 5.99878L8.7178 5.50402C8.42935 5.55994 8.16401 5.70028 7.95544 5.90723C7.74687 6.11418 7.60447 6.37842 7.5463 6.66643C7.48814 6.95444 7.51683 7.25323 7.62874 7.52491C7.74065 7.79658 7.93073 8.0289 8.17487 8.19238C8.41901 8.35586 8.70621 8.44314 9.00003 8.44315C9.39139 8.44316 9.7669 8.28848 10.0447 8.01283C10.3225 7.73717 10.4801 7.36288 10.4832 6.97153C10.4854 6.67771 10.4004 6.38984 10.2388 6.14444C10.0772 5.89903 9.8464 5.70715 9.57561 5.59313L9.37552 6.06835L9.57561 5.59313C9.30481 5.47911 9.00625 5.4481 8.7178 5.50402ZM6.80783 13.8861L6.65669 13.7344H6.44255H4.50006C4.04007 13.7344 3.59893 13.5517 3.27367 13.2264C2.94841 12.9011 2.76569 12.46 2.76569 12V3.75004C2.76569 3.29005 2.94841 2.84891 3.27367 2.52365C3.59893 2.19839 4.04007 2.01567 4.50006 2.01567H13.5C13.96 2.01567 14.4012 2.19839 14.7264 2.52365C15.0517 2.84891 15.2344 3.29005 15.2344 3.75004V12C15.2344 12.46 15.0517 12.9011 14.7264 13.2264C14.4012 13.5517 13.96 13.7344 13.5 13.7344H11.9025H11.7118L11.567 13.8585L9.15243 15.9281C9.15238 15.9282 9.15233 15.9282 9.15228 15.9283C9.10984 15.9645 9.05588 15.9844 9.00009 15.9844L8.99707 15.9844C8.96622 15.9846 8.93564 15.9787 8.90709 15.967L8.71212 16.4443L8.90708 15.967C8.87886 15.9555 8.85316 15.9385 8.83142 15.9172C8.83117 15.9169 8.83091 15.9167 8.83066 15.9164L6.80783 13.8861ZM11.625 13.2656H11.625H13.5C13.8357 13.2656 14.1576 13.1323 14.395 12.8949C14.6323 12.6576 14.7657 12.3357 14.7657 12V3.75004C14.7657 3.41437 14.6323 3.09246 14.395 2.85511C14.1576 2.61776 13.8357 2.48441 13.5 2.48441H4.50006C4.16439 2.48441 3.84248 2.61776 3.60513 2.85511C3.36778 3.09246 3.23444 3.41437 3.23444 3.75004V12C3.23444 12.3357 3.36778 12.6576 3.60513 12.8949C3.84248 13.1323 4.1644 13.2656 4.50006 13.2656L6.75005 13.2656L6.75303 13.2656C6.78388 13.2655 6.81446 13.2714 6.84301 13.283L7.03798 12.8057L6.84301 13.283C6.87123 13.2946 6.89693 13.3115 6.91866 13.3328C6.91892 13.3331 6.91918 13.3333 6.91944 13.3336L8.67217 15.0938L9.0098 15.4329L9.37311 15.1215L11.4727 13.3219C11.5151 13.2856 11.5691 13.2656 11.625 13.2656Z" fill="white" stroke="white"/>
</svg>
