<svg width="24" height="16" viewBox="0 0 24 16" fill="none" xmlns="http://www.w3.org/2000/svg">
<path d="M19.4 9.43756C19.2669 9.61934 19.2272 9.82099 19.286 10.0165C19.3448 10.212 19.4995 10.3924 19.73 10.5344L19.79 10.5706C19.976 10.6826 20.1235 10.8155 20.2241 10.9618C20.3248 11.1082 20.3766 11.265 20.3766 11.4234C20.3766 11.5818 20.3248 11.7387 20.2241 11.885C20.1235 12.0313 19.976 12.1643 19.79 12.2762C19.6043 12.3883 19.3837 12.4772 19.1409 12.5378C18.8981 12.5985 18.6378 12.6297 18.375 12.6297C18.1122 12.6297 17.8519 12.5985 17.6091 12.5378C17.3663 12.4772 17.1457 12.3883 16.96 12.2762L16.9 12.24C16.6643 12.1011 16.365 12.0079 16.0406 11.9724C15.7162 11.937 15.3816 11.9609 15.08 12.0412C14.7842 12.1176 14.532 12.2444 14.3543 12.4061C14.1766 12.5678 14.0813 12.7573 14.08 12.9512V13.0537C14.08 13.3733 13.8693 13.6799 13.4942 13.906C13.1191 14.132 12.6104 14.259 12.08 14.259C11.5496 14.259 11.0409 14.132 10.6658 13.906C10.2907 13.6799 10.08 13.3733 10.08 13.0537V12.9994C10.0723 12.7999 9.96512 12.6065 9.77251 12.4442C9.5799 12.2819 9.31074 12.1582 9 12.0894C8.69838 12.0091 8.36381 11.9852 8.03941 12.0207C7.71502 12.0561 7.41568 12.1493 7.18 12.2883L7.12 12.3244C6.93425 12.4365 6.71368 12.5254 6.47088 12.5861C6.22808 12.6467 5.96783 12.6779 5.705 12.6779C5.44217 12.6779 5.18192 12.6467 4.93912 12.5861C4.69632 12.5254 4.47575 12.4365 4.29 12.3244C4.10405 12.2125 3.95653 12.0795 3.85588 11.9332C3.75523 11.7869 3.70343 11.63 3.70343 11.4716C3.70343 11.3132 3.75523 11.1564 3.85588 11.01C3.95653 10.8637 4.10405 10.7308 4.29 10.6188L4.35 10.5827C4.58054 10.4406 4.73519 10.2602 4.794 10.0647C4.85282 9.8692 4.81312 9.66756 4.68 9.48578C4.55324 9.30752 4.34276 9.1555 4.07447 9.04842C3.80618 8.94133 3.49179 8.88387 3.17 8.8831H3C2.46957 8.8831 1.96086 8.7561 1.58579 8.53005C1.21071 8.304 1 7.99741 1 7.67773C1 7.35805 1.21071 7.05146 1.58579 6.82541C1.96086 6.59936 2.46957 6.47236 3 6.47236H3.09C3.42099 6.4677 3.742 6.40313 4.0113 6.28704C4.28059 6.17096 4.48572 6.00874 4.6 5.82147C4.73312 5.63969 4.77282 5.43804 4.714 5.24253C4.65519 5.04703 4.50054 4.86662 4.27 4.72458L4.21 4.68842C4.02405 4.57647 3.87653 4.44354 3.77588 4.29721C3.67523 4.15088 3.62343 3.99403 3.62343 3.83562C3.62343 3.67722 3.67523 3.52037 3.77588 3.37404C3.87653 3.22771 4.02405 3.09477 4.21 2.98283C4.39575 2.87076 4.61632 2.78185 4.85912 2.72119C5.10192 2.66053 5.36217 2.62931 5.625 2.62931C5.88783 2.62931 6.14808 2.66053 6.39088 2.72119C6.63368 2.78185 6.85425 2.87076 7.04 2.98283L7.1 3.01899C7.33568 3.15793 7.63502 3.25113 7.95941 3.28658C8.28381 3.32203 8.61838 3.2981 8.92 3.21787H9C9.29577 3.14148 9.54802 3.01462 9.72569 2.85293C9.90337 2.69123 9.99872 2.50176 10 2.30782V2.20537C10 1.88568 10.2107 1.57909 10.5858 1.35304C10.9609 1.12699 11.4696 1 12 1C12.5304 1 13.0391 1.12699 13.4142 1.35304C13.7893 1.57909 14 1.88568 14 2.20537V2.25961C14.0013 2.45354 14.0966 2.64302 14.2743 2.80471C14.452 2.96641 14.7042 3.09326 15 3.16966C15.3016 3.24989 15.6362 3.27382 15.9606 3.23837C16.285 3.20292 16.5843 3.10971 16.82 2.97077L16.88 2.93461C17.0657 2.82254 17.2863 2.73364 17.5291 2.67298C17.7719 2.61232 18.0322 2.58109 18.295 2.58109C18.5578 2.58109 18.8181 2.61232 19.0609 2.67298C19.3037 2.73364 19.5243 2.82254 19.71 2.93461C19.896 3.04656 20.0435 3.1795 20.1441 3.32583C20.2448 3.47216 20.2966 3.62901 20.2966 3.78741C20.2966 3.94581 20.2448 4.10266 20.1441 4.24899C20.0435 4.39532 19.896 4.52826 19.71 4.64021L19.65 4.67637C19.4195 4.81841 19.2648 4.99881 19.206 5.19432C19.1472 5.38983 19.1869 5.59147 19.32 5.77325V5.82147C19.4468 5.99972 19.6572 6.15175 19.9255 6.25883C20.1938 6.36591 20.5082 6.42337 20.83 6.42415H21C21.5304 6.42415 22.0391 6.55114 22.4142 6.77719C22.7893 7.00324 23 7.30983 23 7.62951C23 7.9492 22.7893 8.25579 22.4142 8.48184C22.0391 8.70789 21.5304 8.83488 21 8.83488H20.91C20.5882 8.83565 20.2738 8.89312 20.0055 9.0002C19.7372 9.10728 19.5268 9.25931 19.4 9.43756V9.43756Z" stroke="black" stroke-opacity="0.38" stroke-width="2" stroke-linecap="round" stroke-linejoin="round"/>
</svg>
