<svg width="18" height="18" viewBox="0 0 18 18" fill="none" xmlns="http://www.w3.org/2000/svg">
<g clip-path="url(#clip0_0_301)">
<path d="M4.50001 8.25009C4.35168 8.25009 4.20667 8.29408 4.08334 8.37649C3.96 8.4589 3.86387 8.57604 3.8071 8.71308C3.75034 8.85012 3.73549 9.00092 3.76442 9.14641C3.79336 9.29189 3.86479 9.42553 3.96968 9.53042C4.07457 9.63531 4.20821 9.70674 4.35369 9.73568C4.49918 9.76462 4.64998 9.74976 4.78702 9.693C4.92407 9.63623 5.0412 9.5401 5.12361 9.41677C5.20602 9.29343 5.25001 9.14843 5.25001 9.00009C5.25001 8.80118 5.17099 8.61041 5.03034 8.46976C4.88969 8.32911 4.69892 8.25009 4.50001 8.25009ZM13.5 8.25009C13.3517 8.25009 13.2066 8.29408 13.0833 8.37649C12.96 8.4589 12.8638 8.57604 12.8071 8.71308C12.7503 8.85012 12.7355 9.00092 12.7644 9.14641C12.7933 9.29189 12.8648 9.42553 12.9697 9.53042C13.0746 9.63531 13.2082 9.70674 13.3537 9.73568C13.4992 9.76462 13.65 9.74976 13.787 9.693C13.924 9.63623 14.0412 9.5401 14.1236 9.41677C14.206 9.29343 14.25 9.14843 14.25 9.00009C14.25 8.80118 14.171 8.61041 14.0303 8.46976C13.8897 8.32911 13.6989 8.25009 13.5 8.25009ZM15 3.7501H3.00002C2.40328 3.7501 1.83098 3.98716 1.40903 4.40911C0.987073 4.83107 0.750021 5.40336 0.750021 6.0001V12.0001C0.750021 12.5968 0.987073 13.1691 1.40903 13.5911C1.83098 14.013 2.40328 14.2501 3.00002 14.2501H15C15.5967 14.2501 16.169 14.013 16.591 13.5911C17.0129 13.1691 17.25 12.5968 17.25 12.0001V6.0001C17.25 5.40336 17.0129 4.83107 16.591 4.40911C16.169 3.98716 15.5967 3.7501 15 3.7501ZM15.75 12.0001C15.75 12.199 15.671 12.3898 15.5303 12.5304C15.3897 12.6711 15.1989 12.7501 15 12.7501H3.00002C2.8011 12.7501 2.61034 12.6711 2.46969 12.5304C2.32903 12.3898 2.25002 12.199 2.25002 12.0001V6.0001C2.25002 5.80119 2.32903 5.61042 2.46969 5.46977C2.61034 5.32912 2.8011 5.2501 3.00002 5.2501H15C15.1989 5.2501 15.3897 5.32912 15.5303 5.46977C15.671 5.61042 15.75 5.80119 15.75 6.0001V12.0001ZM9 6.7501C8.55499 6.7501 8.11998 6.88206 7.74997 7.12929C7.37996 7.37652 7.09157 7.72792 6.92128 8.13906C6.75098 8.55019 6.70642 9.00259 6.79324 9.43904C6.88006 9.8755 7.09435 10.2764 7.40901 10.5911C7.72368 10.9057 8.12459 11.12 8.56105 11.2069C8.9975 11.2937 9.4499 11.2491 9.86104 11.0788C10.2722 10.9085 10.6236 10.6201 10.8708 10.2501C11.118 9.88011 11.25 9.4451 11.25 9.00009C11.25 8.40336 11.0129 7.83106 10.591 7.4091C10.169 6.98715 9.59674 6.7501 9 6.7501ZM9 9.75009C8.85167 9.75009 8.70666 9.7061 8.58332 9.62369C8.45999 9.54128 8.36386 9.42415 8.30709 9.2871C8.25033 9.15006 8.23547 8.99926 8.26441 8.85377C8.29335 8.70829 8.36478 8.57465 8.46967 8.46976C8.57456 8.36487 8.7082 8.29344 8.85368 8.2645C8.99917 8.23557 9.14997 8.25042 9.28701 8.30718C9.42406 8.36395 9.54119 8.46008 9.6236 8.58341C9.70601 8.70675 9.75 8.85176 9.75 9.00009C9.75 9.199 9.67098 9.38977 9.53033 9.53042C9.38968 9.67107 9.19891 9.75009 9 9.75009Z" fill="black"/>
<path d="M16.2264 4.77371L16.5871 4.41303L16.2264 4.77371C16.5516 5.09897 16.7344 5.54012 16.7344 6.0001V12.0001C16.7344 12.4601 16.5516 12.9012 16.2264 13.2265C15.9011 13.5517 15.46 13.7345 15 13.7345H3.00002C2.54003 13.7345 2.09889 13.5517 1.77363 13.2265C1.44837 12.9012 1.26564 12.4601 1.26564 12.0001V6.0001C1.26564 5.54012 1.44837 5.09897 1.77363 4.77371C2.09889 4.44846 2.54003 4.26573 3.00002 4.26573H15C15.46 4.26573 15.9011 4.44846 16.2264 4.77371ZM7.7587 8.75318L8.26441 8.85377L7.7587 8.75318C7.70986 8.99869 7.73493 9.25316 7.83072 9.48442C7.92651 9.71569 8.08873 9.91335 8.29686 10.0524C8.50499 10.1915 8.74968 10.2657 9 10.2657C9.33566 10.2657 9.65758 10.1324 9.89493 9.89502C10.1323 9.65767 10.2656 9.33576 10.2656 9.00009C10.2656 8.74977 10.1914 8.50508 10.0523 8.29695C9.91326 8.08882 9.7156 7.9266 9.48433 7.83081C9.25307 7.73502 8.9986 7.70995 8.75309 7.75879C8.50758 7.80762 8.28207 7.92816 8.10507 8.10516C7.92807 8.28216 7.80753 8.50767 7.7587 8.75318ZM4.3698 8.80522C4.40834 8.77946 4.45366 8.76572 4.50001 8.76572C4.56217 8.76572 4.62178 8.79041 4.66574 8.83436C4.70969 8.87832 4.73439 8.93793 4.73439 9.00009C4.73439 9.04645 4.72064 9.09176 4.69489 9.1303C4.66913 9.16884 4.63253 9.19889 4.5897 9.21662C4.54688 9.23436 4.49975 9.23901 4.45429 9.22996C4.40882 9.22092 4.36706 9.1986 4.33428 9.16582C4.30151 9.13304 4.27918 9.09128 4.27014 9.04582C4.2611 9.00035 4.26574 8.95323 4.28348 8.9104C4.30122 8.86757 4.33126 8.83097 4.3698 8.80522ZM13.3698 8.80522C13.4083 8.77946 13.4536 8.76572 13.5 8.76572C13.5621 8.76572 13.6218 8.79041 13.6657 8.83436C13.7097 8.87832 13.7344 8.93793 13.7344 9.00009C13.7344 9.04645 13.7206 9.09176 13.6949 9.1303C13.6691 9.16884 13.6325 9.19889 13.5897 9.21662C13.5469 9.23436 13.4997 9.23901 13.4543 9.22996C13.4088 9.22092 13.367 9.1986 13.3343 9.16582C13.3015 9.13304 13.2792 9.09128 13.2701 9.04582C13.2611 9.00035 13.2657 8.95323 13.2835 8.9104C13.3012 8.86757 13.3312 8.83097 13.3698 8.80522ZM15.8949 12.895C16.1323 12.6577 16.2656 12.3357 16.2656 12.0001V6.0001C16.2656 5.66444 16.1323 5.34252 15.8949 5.10517C15.6576 4.86782 15.3356 4.73448 15 4.73448H3.00002C2.66435 4.73448 2.34244 4.86782 2.10509 5.10517C1.86774 5.34252 1.73439 5.66444 1.73439 6.0001V12.0001C1.73439 12.3357 1.86774 12.6577 2.10508 12.895C2.34244 13.1324 2.66435 13.2657 3.00002 13.2657H15C15.3356 13.2657 15.6576 13.1324 15.8949 12.895ZM8.03644 7.55802C8.32165 7.36744 8.65698 7.26572 9 7.26572C9.45999 7.26572 9.90113 7.44845 10.2264 7.77371C10.5516 8.09896 10.7344 8.54011 10.7344 9.00009C10.7344 9.34312 10.6327 9.67844 10.4421 9.96366C10.2515 10.2489 9.98063 10.4712 9.66372 10.6024C9.3468 10.7337 8.99808 10.7681 8.66164 10.7011C8.32521 10.6342 8.01617 10.469 7.77362 10.2265C7.53106 9.98392 7.36588 9.67489 7.29896 9.33845C7.23203 9.00201 7.26638 8.65329 7.39765 8.33638C7.52892 8.01946 7.75122 7.74859 8.03644 7.55802Z" stroke="black" stroke-opacity="0.6"/>
</g>
<defs>
<clipPath id="clip0_0_301">
<rect width="17.4545" height="17.4545" fill="white" transform="scale(1.03125)"/>
</clipPath>
</defs>
</svg>
