<svg width="16" height="16" viewBox="0 0 16 16" fill="none" xmlns="http://www.w3.org/2000/svg">
<path d="M8.06659 12.3667L7.99992 12.4333L7.92659 12.3667C4.75992 9.49333 2.66659 7.59333 2.66659 5.66667C2.66659 4.33333 3.66659 3.33333 4.99992 3.33333C6.02659 3.33333 7.02659 4 7.37992 4.90667H8.61992C8.97325 4 9.97325 3.33333 10.9999 3.33333C12.3333 3.33333 13.3333 4.33333 13.3333 5.66667C13.3333 7.59333 11.2399 9.49333 8.06659 12.3667ZM10.9999 2C9.83992 2 8.72659 2.54 7.99992 3.38667C7.27325 2.54 6.15992 2 4.99992 2C2.94659 2 1.33325 3.60667 1.33325 5.66667C1.33325 8.18 3.59992 10.24 7.03325 13.3533L7.99992 14.2333L8.96659 13.3533C12.3999 10.24 14.6666 8.18 14.6666 5.66667C14.6666 3.60667 13.0533 2 10.9999 2Z" fill="black" fill-opacity="0.87"/>
</svg>
