<svg width="24" height="15" viewBox="0 0 24 15" fill="none" xmlns="http://www.w3.org/2000/svg">
<path d="M21.6098 7.11769L18.3598 5.5929L21.6198 4.05003C21.7487 3.98903 21.8509 3.90986 21.9171 3.81947C21.9834 3.72909 22.0118 3.63027 21.9998 3.53173C21.9838 3.43355 21.9304 3.33893 21.8437 3.25528C21.7569 3.17163 21.6392 3.10123 21.4998 3.04958L16.3598 1.28372C16.1792 1.22251 15.9717 1.1966 15.7657 1.20955C15.5597 1.22251 15.3654 1.27369 15.2098 1.35604L11.9998 3.04355L8.78976 1.35604C8.6341 1.27369 8.43986 1.22251 8.23386 1.20955C8.02786 1.1966 7.82027 1.22251 7.63976 1.28372L2.49976 3.04958C2.36031 3.10123 2.2426 3.17163 2.15585 3.25528C2.06911 3.33893 2.01568 3.43355 1.99976 3.53173C1.98774 3.63027 2.01612 3.72909 2.08238 3.81947C2.14865 3.90986 2.25077 3.98903 2.37976 4.05003L5.63976 5.5929L2.38976 7.09358C2.25894 7.15393 2.15489 7.23282 2.08685 7.32325C2.01882 7.41367 1.9889 7.51282 1.99976 7.61189C2.01084 7.71085 2.06227 7.80663 2.14949 7.89073C2.23671 7.97484 2.35703 8.04467 2.49976 8.09404L5.90976 9.2994V10.788C5.91047 10.891 5.95497 10.9922 6.039 11.0819C6.12303 11.1715 6.24379 11.2468 6.38976 11.3003L11.4798 13.1867C11.6318 13.2396 11.8042 13.2675 11.9798 13.2675C12.1553 13.2675 12.3277 13.2396 12.4798 13.1867L17.5698 11.3003C17.7157 11.2468 17.8365 11.1715 17.9205 11.0819C18.0046 10.9922 18.049 10.891 18.0498 10.788V9.29338L21.4598 8.11814C21.6025 8.06878 21.7228 7.99895 21.81 7.91484C21.8972 7.83073 21.9487 7.73496 21.9598 7.636C21.9753 7.53899 21.9516 7.44115 21.8906 7.35088C21.8297 7.26061 21.7333 7.18059 21.6098 7.11769ZM15.9998 2.54333L19.2298 3.65226L16.6798 4.85763L13.6798 3.74869L15.9998 2.54333ZM14.9098 5.62906L11.9998 6.83443L9.08976 5.62906L11.9998 4.55026L14.9098 5.62906ZM4.78976 3.65226L7.99976 2.54333L10.3098 3.74869L7.30976 4.85763L4.78976 3.65226ZM4.78976 7.50341L7.28976 6.34626L10.2898 7.59984L8.06976 8.64248L4.78976 7.50341ZM16.0798 10.4324L11.9998 11.9512L7.90976 10.4324V9.9503C8.05585 9.97192 8.20816 9.97339 8.35533 9.9546C8.5025 9.93582 8.64074 9.89727 8.75976 9.84182L11.9998 8.33511L15.2398 9.84182C15.4143 9.92346 15.6288 9.96797 15.8498 9.96838C15.9295 9.97419 16.01 9.97419 16.0898 9.96838L16.0798 10.4324ZM15.9298 8.6244L13.6998 7.59984L16.6998 6.34626L19.2098 7.51546L15.9298 8.6244Z" fill="black" fill-opacity="0.38"/>
</svg>
