<svg width="14" height="14" viewBox="0 0 14 14" fill="none" xmlns="http://www.w3.org/2000/svg">
<path d="M11.0834 2.33337H2.91675C2.45262 2.33337 2.0075 2.51775 1.67931 2.84594C1.35112 3.17413 1.16675 3.61925 1.16675 4.08337V9.91671C1.16675 10.3808 1.35112 10.826 1.67931 11.1541C2.0075 11.4823 2.45262 11.6667 2.91675 11.6667H11.0834C11.5475 11.6667 11.9927 11.4823 12.3209 11.1541C12.649 10.826 12.8334 10.3808 12.8334 9.91671V4.08337C12.8334 3.61925 12.649 3.17413 12.3209 2.84594C11.9927 2.51775 11.5475 2.33337 11.0834 2.33337ZM2.91675 3.50004H11.0834C11.2381 3.50004 11.3865 3.5615 11.4959 3.6709C11.6053 3.78029 11.6667 3.92866 11.6667 4.08337L7.00008 6.93004L2.33341 4.08337C2.33341 3.92866 2.39487 3.78029 2.50427 3.6709C2.61367 3.5615 2.76204 3.50004 2.91675 3.50004ZM11.6667 9.91671C11.6667 10.0714 11.6053 10.2198 11.4959 10.3292C11.3865 10.4386 11.2381 10.5 11.0834 10.5H2.91675C2.76204 10.5 2.61367 10.4386 2.50427 10.3292C2.39487 10.2198 2.33341 10.0714 2.33341 9.91671V5.41337L6.69675 8.07921C6.78543 8.13041 6.88602 8.15736 6.98841 8.15736C7.09081 8.15736 7.1914 8.13041 7.28008 8.07921L11.6667 5.41337V9.91671Z" fill="white"/>
</svg>
