<svg width="14" height="14" viewBox="0 0 14 14" fill="none" xmlns="http://www.w3.org/2000/svg">
<path d="M12.167 4.36394L11.9274 4.5101L7.2607 7.35677L7.00033 7.5156L6.73995 7.35677L2.07328 4.5101L1.83366 4.36394V4.08325C1.83366 3.79593 1.9478 3.52038 2.15096 3.31722C2.35412 3.11406 2.62967 2.99992 2.91699 2.99992H11.0837C11.371 2.99992 11.6465 3.11406 11.8497 3.31722M12.167 4.36394L11.8497 3.31722M12.167 4.36394V4.08325C12.167 3.79594 12.0529 3.52038 11.8497 3.31722M12.167 4.36394L11.4961 3.67077L11.8497 3.31722M2.59434 4.98658L1.83366 4.52184V5.41325V9.91659C1.83366 10.2039 1.9478 10.4795 2.15096 10.6826L2.50451 10.3291L2.15096 10.6826C2.35413 10.8858 2.62968 10.9999 2.91699 10.9999H11.0837C11.371 10.9999 11.6465 10.8858 11.8497 10.6826C12.0529 10.4795 12.167 10.2039 12.167 9.91659V5.41325V4.52431L11.4073 4.98597L7.02763 7.64757C7.01563 7.65391 7.00226 7.65724 6.98866 7.65724C6.97517 7.65724 6.9619 7.65396 6.94998 7.64772L2.59434 4.98658ZM2.91699 2.83325H11.0837C11.4152 2.83325 11.7331 2.96495 11.9675 3.19937C12.202 3.43379 12.3337 3.75173 12.3337 4.08325V9.91659C12.3337 10.2481 12.202 10.566 11.9675 10.8005C11.7331 11.0349 11.4152 11.1666 11.0837 11.1666H2.91699C2.58547 11.1666 2.26753 11.0349 2.03311 10.8005C1.79869 10.566 1.66699 10.2481 1.66699 9.91659V4.08325C1.66699 3.75173 1.79869 3.43379 2.03311 3.19937C2.26753 2.96495 2.58547 2.83325 2.91699 2.83325Z" fill="black" fill-opacity="0.38" stroke="white"/>
</svg>
