<svg width="16" height="16" viewBox="0 0 16 16" fill="none" xmlns="http://www.w3.org/2000/svg">
<path d="M11.6666 5.99935C11.0698 5.9991 10.4822 6.14673 9.95636 6.42904C9.90838 6.30266 9.82308 6.19386 9.71179 6.11712C9.6005 6.04037 9.4685 5.99929 9.33331 5.99935H6.66665C6.57909 5.9993 6.49237 6.01651 6.41147 6.05C6.33056 6.08348 6.25705 6.13259 6.19513 6.19451C6.13322 6.25642 6.08411 6.32993 6.05063 6.41084C6.01714 6.49175 5.99993 6.57846 5.99998 6.66602V14.666C5.99993 14.7536 6.01714 14.8403 6.05062 14.9212C6.08411 15.0021 6.13321 15.0756 6.19513 15.1375C6.25705 15.1995 6.33056 15.2486 6.41146 15.282C6.49237 15.3155 6.57908 15.3327 6.66665 15.3327H9.33331C9.42088 15.3327 9.50759 15.3155 9.5885 15.282C9.6694 15.2486 9.74292 15.1995 9.80483 15.1375C9.86675 15.0756 9.91585 15.0021 9.94934 14.9212C9.98282 14.8403 10 14.7536 9.99998 14.666V10.9994C9.99998 10.8225 10.0702 10.653 10.1952 10.528C10.3203 10.4029 10.4898 10.3327 10.6666 10.3327C10.8435 10.3327 11.013 10.4029 11.1381 10.528C11.2631 10.653 11.3333 10.8225 11.3333 10.9994V14.666C11.3333 14.7536 11.3505 14.8403 11.384 14.9212C11.4174 15.0021 11.4665 15.0756 11.5285 15.1375C11.5904 15.1995 11.6639 15.2486 11.7448 15.282C11.8257 15.3155 11.9124 15.3327 12 15.3327H14.6666C14.7542 15.3327 14.8409 15.3155 14.9218 15.282C15.0027 15.2486 15.0763 15.1995 15.1382 15.1375C15.2001 15.0756 15.2492 15.0021 15.2827 14.9212C15.3162 14.8403 15.3334 14.7536 15.3333 14.666V9.66602C15.3321 8.69393 14.9454 7.762 14.258 7.07463C13.5707 6.38726 12.6387 6.00056 11.6666 5.99935ZM14 13.9994H12.6666V10.9994C12.6666 10.4689 12.4559 9.96021 12.0809 9.58514C11.7058 9.21007 11.1971 8.99935 10.6666 8.99935C10.1362 8.99935 9.62751 9.21007 9.25243 9.58514C8.87736 9.96021 8.66665 10.4689 8.66665 10.9994V13.9994H7.33331V7.33269H8.66665V7.80144C8.66673 7.93957 8.70969 8.07428 8.78961 8.18694C8.86953 8.29961 8.98246 8.38468 9.1128 8.43042C9.24315 8.47615 9.38447 8.48029 9.51727 8.44226C9.65006 8.40423 9.76777 8.32591 9.85415 8.21811C10.1533 7.83813 10.5637 7.56107 11.028 7.4256C11.4922 7.29014 11.9872 7.30303 12.4438 7.46249C12.9004 7.62195 13.2958 7.92001 13.5748 8.31505C13.8537 8.7101 14.0024 9.1824 14 9.66602V13.9994ZM4.66665 5.99935H1.99998C1.91242 5.9993 1.82571 6.01651 1.7448 6.05C1.66389 6.08348 1.59038 6.13259 1.52846 6.19451C1.46655 6.25642 1.41744 6.32993 1.38396 6.41084C1.35047 6.49175 1.33326 6.57846 1.33331 6.66602V14.666C1.33326 14.7536 1.35047 14.8403 1.38396 14.9212C1.41744 15.0021 1.46655 15.0756 1.52846 15.1375C1.59038 15.1995 1.66389 15.2486 1.7448 15.282C1.8257 15.3155 1.91242 15.3327 1.99998 15.3327H4.66665C4.75421 15.3327 4.84092 15.3155 4.92183 15.282C5.00274 15.2486 5.07625 15.1995 5.13817 15.1375C5.20008 15.0756 5.24919 15.0021 5.28267 14.9212C5.31616 14.8403 5.33336 14.7536 5.33331 14.666V6.66602C5.33336 6.57846 5.31615 6.49175 5.28267 6.41084C5.24918 6.32993 5.20008 6.25642 5.13816 6.19451C5.07625 6.13259 5.00273 6.08348 4.92183 6.05C4.84092 6.01651 4.75421 5.9993 4.66665 5.99935ZM3.99998 13.9994H2.66665V7.33269H3.99998V13.9994ZM3.34308 1.02802C3.05132 1.01056 2.75906 1.05262 2.48406 1.15165C2.20907 1.25068 1.9571 1.40461 1.74346 1.60408C1.52982 1.80355 1.35899 2.04439 1.24135 2.31195C1.12372 2.57952 1.06173 2.86821 1.05916 3.16048C1.0566 3.45275 1.11351 3.74249 1.22644 4.01208C1.33936 4.28166 1.50594 4.52546 1.71605 4.72865C1.92615 4.93184 2.17539 5.09016 2.4486 5.19401C2.72181 5.29785 3.01329 5.34503 3.30531 5.33269H3.32419C3.61673 5.35006 3.90973 5.30761 4.1853 5.20792C4.46087 5.10823 4.71322 4.9534 4.92693 4.75289C5.14064 4.55238 5.31122 4.3104 5.42825 4.04174C5.54528 3.77308 5.60631 3.48337 5.60759 3.19033C5.60888 2.89728 5.5504 2.60705 5.43573 2.33738C5.32106 2.0677 5.1526 1.82423 4.94066 1.62185C4.72872 1.41947 4.47773 1.26244 4.20305 1.16034C3.92837 1.05823 3.63575 1.01321 3.34307 1.02802H3.34308ZM3.3242 3.99935H3.30531C3.19003 4.01335 3.07308 4.00254 2.96231 3.96764C2.85154 3.93274 2.74952 3.87456 2.66308 3.797C2.57664 3.71944 2.50778 3.62429 2.46112 3.51794C2.41447 3.41159 2.39109 3.29649 2.39256 3.18036C2.39256 2.68296 2.76561 2.36135 3.34308 2.36135C3.45955 2.34582 3.57799 2.35543 3.69042 2.38954C3.80286 2.42364 3.90669 2.48144 3.9949 2.55905C4.08312 2.63666 4.15368 2.73227 4.20184 2.83944C4.24999 2.94662 4.27462 3.06287 4.27407 3.18036C4.27407 3.67775 3.90102 3.99935 3.3242 3.99935Z" fill="black" fill-opacity="0.87"/>
</svg>
