<svg width="18" height="18" viewBox="0 0 18 18" fill="none" xmlns="http://www.w3.org/2000/svg">
<g clip-path="url(#clip0_0_372)">
<path d="M16.2264 4.77371L16.5871 4.41303L16.2264 4.77371C16.5516 5.09897 16.7344 5.54012 16.7344 6.0001V12.0001C16.7344 12.4601 16.5516 12.9012 16.2264 13.2265C15.9011 13.5517 15.46 13.7345 15 13.7345H3.00002C2.54003 13.7345 2.09889 13.5517 1.77363 13.2265C1.44837 12.9012 1.26564 12.4601 1.26564 12.0001V6.0001C1.26564 5.54012 1.44837 5.09897 1.77363 4.77371C2.09889 4.44846 2.54003 4.26573 3.00002 4.26573H15C15.46 4.26573 15.9011 4.44846 16.2264 4.77371ZM7.7587 8.75318L8.26441 8.85377L7.7587 8.75318C7.70986 8.99869 7.73493 9.25316 7.83072 9.48442C7.92651 9.71569 8.08873 9.91335 8.29686 10.0524C8.50499 10.1915 8.74968 10.2657 9 10.2657C9.33566 10.2657 9.65758 10.1324 9.89493 9.89502C10.1323 9.65767 10.2656 9.33576 10.2656 9.00009C10.2656 8.74977 10.1914 8.50508 10.0523 8.29695C9.91326 8.08882 9.7156 7.9266 9.48433 7.83081C9.25307 7.73502 8.9986 7.70995 8.75309 7.75879C8.50758 7.80762 8.28207 7.92816 8.10507 8.10516C7.92807 8.28216 7.80753 8.50767 7.7587 8.75318ZM4.3698 8.80522C4.40834 8.77946 4.45366 8.76572 4.50001 8.76572C4.56217 8.76572 4.62178 8.79041 4.66574 8.83436C4.70969 8.87832 4.73439 8.93793 4.73439 9.00009C4.73439 9.04645 4.72064 9.09176 4.69489 9.1303C4.66913 9.16884 4.63253 9.19889 4.5897 9.21662C4.54688 9.23436 4.49975 9.23901 4.45429 9.22996C4.40882 9.22092 4.36706 9.1986 4.33428 9.16582C4.30151 9.13304 4.27918 9.09128 4.27014 9.04582C4.2611 9.00035 4.26574 8.95323 4.28348 8.9104C4.30122 8.86757 4.33126 8.83097 4.3698 8.80522ZM13.3698 8.80522C13.4083 8.77946 13.4536 8.76572 13.5 8.76572C13.5621 8.76572 13.6218 8.79041 13.6657 8.83436C13.7097 8.87832 13.7344 8.93793 13.7344 9.00009C13.7344 9.04645 13.7206 9.09176 13.6949 9.1303C13.6691 9.16884 13.6325 9.19889 13.5897 9.21662C13.5469 9.23436 13.4997 9.23901 13.4543 9.22996C13.4088 9.22092 13.367 9.1986 13.3343 9.16582C13.3015 9.13304 13.2792 9.09128 13.2701 9.04582C13.2611 9.00035 13.2657 8.95323 13.2835 8.9104C13.3012 8.86757 13.3312 8.83097 13.3698 8.80522ZM15.8949 12.895C16.1323 12.6577 16.2656 12.3357 16.2656 12.0001V6.0001C16.2656 5.66444 16.1323 5.34252 15.8949 5.10517C15.6576 4.86782 15.3356 4.73448 15 4.73448H3.00002C2.66435 4.73448 2.34244 4.86782 2.10509 5.10517C1.86774 5.34252 1.73439 5.66444 1.73439 6.0001V12.0001C1.73439 12.3357 1.86774 12.6577 2.10508 12.895C2.34244 13.1324 2.66435 13.2657 3.00002 13.2657H15C15.3356 13.2657 15.6576 13.1324 15.8949 12.895ZM8.03644 7.55802C8.32165 7.36744 8.65698 7.26572 9 7.26572C9.45999 7.26572 9.90113 7.44845 10.2264 7.77371C10.5516 8.09896 10.7344 8.54011 10.7344 9.00009C10.7344 9.34312 10.6327 9.67844 10.4421 9.96366C10.2515 10.2489 9.98063 10.4712 9.66372 10.6024C9.3468 10.7337 8.99808 10.7681 8.66164 10.7011C8.32521 10.6342 8.01617 10.469 7.77362 10.2265C7.53106 9.98392 7.36588 9.67489 7.29896 9.33845C7.23203 9.00201 7.26638 8.65329 7.39765 8.33638C7.52892 8.01946 7.75122 7.74859 8.03644 7.55802Z" fill="white" stroke="white"/>
</g>
<defs>
<clipPath id="clip0_0_372">
<rect width="17.4545" height="17.4545" fill="white" transform="scale(1.03125)"/>
</clipPath>
</defs>
</svg>
