<svg width="20" height="11" viewBox="0 0 20 11" fill="none" xmlns="http://www.w3.org/2000/svg">
<path d="M19.32 1.23568L13.32 0.0303143H13.25C13.2035 0.0274947 13.1566 0.0274947 13.11 0.0303143H12.88H12.75H12.68L7 1.20555L1.32 0.0303143C1.16962 0.000428156 1.00961 -0.0075069 0.853139 0.0071621C0.696671 0.0218311 0.548219 0.0586848 0.420003 0.11469C0.290762 0.170147 0.185268 0.243341 0.112238 0.328225C0.039208 0.413109 0.000736954 0.507248 3.33354e-06 0.602863V9.04043C-0.000537828 9.16678 0.0648223 9.29003 0.186845 9.39277C0.308868 9.49551 0.481382 9.57255 0.680003 9.61298L6.68 10.8183C6.88145 10.8579 7.09856 10.8579 7.3 10.8183L13 9.67325L18.68 10.8485C18.7862 10.8572 18.8938 10.8572 19 10.8485C19.2091 10.8503 19.4132 10.81 19.58 10.734C19.7092 10.6785 19.8147 10.6053 19.8878 10.5204C19.9608 10.4355 19.9993 10.3414 20 10.2458V1.80823C20.0005 1.68188 19.9352 1.55863 19.8132 1.45588C19.6911 1.35314 19.5186 1.27611 19.32 1.23568ZM6 9.40806L2 8.6065V1.44059L6 2.24216V9.40806ZM12 8.6065L8 9.40806V2.24216L12 1.44059V8.6065ZM18 9.40806L14 8.6065V1.44059L18 2.24216V9.40806Z" fill="black" fill-opacity="0.38"/>
</svg>
