<svg width="20" height="20" viewBox="0 0 20 20" fill="none" xmlns="http://www.w3.org/2000/svg">
<path d="M7.50002 10.8334H9.16669V12.5001C9.16669 12.7211 9.25449 12.9331 9.41077 13.0893C9.56705 13.2456 9.77901 13.3334 10 13.3334C10.221 13.3334 10.433 13.2456 10.5893 13.0893C10.7456 12.9331 10.8334 12.7211 10.8334 12.5001V10.8334H12.5C12.721 10.8334 12.933 10.7456 13.0893 10.5893C13.2456 10.4331 13.3334 10.2211 13.3334 10.0001C13.3334 9.77907 13.2456 9.56711 13.0893 9.41083C12.933 9.25455 12.721 9.16675 12.5 9.16675H10.8334V7.50008C10.8334 7.27907 10.7456 7.06711 10.5893 6.91083C10.433 6.75455 10.221 6.66675 10 6.66675C9.77901 6.66675 9.56705 6.75455 9.41077 6.91083C9.25449 7.06711 9.16669 7.27907 9.16669 7.50008V9.16675H7.50002C7.27901 9.16675 7.06705 9.25455 6.91077 9.41083C6.75448 9.56711 6.66669 9.77907 6.66669 10.0001C6.66669 10.2211 6.75448 10.4331 6.91077 10.5893C7.06705 10.7456 7.27901 10.8334 7.50002 10.8334ZM17.5 1.66675H2.50002C2.27901 1.66675 2.06704 1.75455 1.91076 1.91083C1.75448 2.06711 1.66669 2.27907 1.66669 2.50008V17.5001C1.66669 17.7211 1.75448 17.9331 1.91076 18.0893C2.06704 18.2456 2.27901 18.3334 2.50002 18.3334H17.5C17.721 18.3334 17.933 18.2456 18.0893 18.0893C18.2456 17.9331 18.3334 17.7211 18.3334 17.5001V2.50008C18.3334 2.27907 18.2456 2.06711 18.0893 1.91083C17.933 1.75455 17.721 1.66675 17.5 1.66675ZM16.6667 16.6667H3.33335V3.33341H16.6667V16.6667Z" fill="white"/>
</svg>
