<svg width="257" height="102" viewBox="0 0 257 102" fill="none" xmlns="http://www.w3.org/2000/svg">
<path d="M103.901 44.1065H127.875C130.064 44.1065 132.163 43.7626 133.711 43.1503C135.259 42.5381 136.129 41.7077 136.129 40.8419C136.129 39.9761 135.259 39.1457 133.711 38.5335C132.163 37.9213 130.064 37.5773 127.875 37.5773H103.901C101.711 37.5773 99.6118 37.9213 98.0638 38.5335C96.5158 39.1457 95.6462 39.9761 95.6462 40.8419C95.6462 41.7077 96.5158 42.5381 98.0638 43.1503C99.6118 43.7626 101.711 44.1065 103.901 44.1065ZM207.967 8.28425H48.6983C41.4266 8.29482 34.4603 9.44198 29.3185 11.4756C24.1766 13.5093 21.2762 16.2644 21.2496 19.1404V82.1304C21.276 85.0064 24.1764 87.7616 29.3182 89.7953C34.4601 91.829 41.4264 92.9762 48.6983 92.9868H207.966C215.238 92.9765 222.204 91.8295 227.347 89.7959C232.489 87.7623 235.39 85.007 235.416 82.1309V19.1404C235.39 16.2643 232.49 13.5091 227.347 11.4754C222.205 9.44174 215.239 8.29464 207.967 8.28425ZM196.481 49.2709L196.271 60.6017C196.187 65.1211 191.598 69.445 183.501 72.6341C175.404 75.8233 164.452 77.6202 153.025 77.6345H103.349C91.9076 77.6263 80.9383 75.83 72.8313 72.6371C64.7242 69.4441 60.1364 65.1134 60.0677 60.5885V40.7074C60.1293 36.1794 64.7128 31.8444 72.8195 28.647C80.9262 25.4495 91.8993 23.6486 103.348 23.6366H133.586C140.552 24.1144 147.162 25.1979 152.94 26.809C158.719 28.4201 163.52 30.5184 166.999 32.9526C169.382 34.7426 170.707 36.7231 170.873 38.7449C171.595 40.886 171.975 42.477 174.408 43.3587C177.828 44.5848 190.548 43.7589 193.064 44.538L194.979 45.1302L196.145 46.069L196.53 46.8209L196.481 49.2709ZM152.609 57.1648H103.901C102.825 57.1518 101.754 57.2243 100.751 57.3781C99.7481 57.5319 98.8333 57.7638 98.061 58.06C97.2888 58.3562 96.6748 58.7108 96.2555 59.1026C95.8362 59.4945 95.6202 59.9156 95.6202 60.3411C95.6202 60.7666 95.8362 61.1878 96.2555 61.5796C96.6748 61.9715 97.2888 62.326 98.061 62.6222C98.8333 62.9185 99.7481 63.1504 100.751 63.3041C101.754 63.4579 102.825 63.5305 103.901 63.5175H152.61C153.681 63.5282 154.748 63.454 155.746 63.2992C156.744 63.1444 157.654 62.9121 158.421 62.6161C159.189 62.3201 159.799 61.9663 160.216 61.5756C160.632 61.1849 160.847 60.7651 160.847 60.3411C160.847 59.9171 160.632 59.4974 160.216 59.1067C159.799 58.7159 159.189 58.3622 158.421 58.0662C157.654 57.7701 156.744 57.5379 155.746 57.3831C154.748 57.2283 153.681 57.1541 152.61 57.1648H152.609Z" fill="#FFD964"/>
</svg>
