<svg width="18" height="18" viewBox="0 0 18 18" fill="none" xmlns="http://www.w3.org/2000/svg">
<path d="M14.9999 6.0001L10.4999 2.05511C10.0873 1.68615 9.55331 1.48217 8.99987 1.48217C8.44642 1.48217 7.91238 1.68615 7.49987 2.05511L2.99988 6.0001C2.76166 6.21316 2.57156 6.47452 2.44224 6.76679C2.31291 7.05905 2.24734 7.37551 2.24988 7.6951V14.2501C2.24988 14.8468 2.48693 15.4191 2.90889 15.8411C3.33085 16.263 3.90314 16.5001 4.49988 16.5001H13.4999C14.0966 16.5001 14.6689 16.263 15.0908 15.8411C15.5128 15.4191 15.7498 14.8468 15.7498 14.2501V7.6876C15.7513 7.36927 15.6852 7.05426 15.5559 6.76336C15.4267 6.47247 15.2371 6.21232 14.9999 6.0001ZM10.4999 15.0001H7.49987V11.2501C7.49987 11.0512 7.57889 10.8604 7.71954 10.7198C7.86019 10.5791 8.05095 10.5001 8.24987 10.5001H9.74986C9.94878 10.5001 10.1395 10.5791 10.2802 10.7198C10.4208 10.8604 10.4999 11.0512 10.4999 11.2501V15.0001ZM14.2499 14.2501C14.2499 14.449 14.1708 14.6398 14.0302 14.7804C13.8895 14.9211 13.6988 15.0001 13.4999 15.0001H11.9999V11.2501C11.9999 10.6534 11.7628 10.0811 11.3408 9.6591C10.9189 9.23715 10.3466 9.0001 9.74986 9.0001H8.24987C7.65313 9.0001 7.08084 9.23715 6.65888 9.6591C6.23692 10.0811 5.99987 10.6534 5.99987 11.2501V15.0001H4.49988C4.30096 15.0001 4.1102 14.9211 3.96955 14.7804C3.8289 14.6398 3.74988 14.449 3.74988 14.2501V7.6876C3.75001 7.58111 3.77282 7.47587 3.81679 7.37888C3.86076 7.2819 3.92488 7.19538 4.00488 7.1251L8.50487 3.18761C8.64173 3.06737 8.81768 3.00106 8.99987 3.00106C9.18205 3.00106 9.358 3.06737 9.49486 3.18761L13.9949 7.1251C14.0749 7.19538 14.139 7.2819 14.1829 7.37888C14.2269 7.47587 14.2497 7.58111 14.2499 7.6876V14.2501Z" fill="black"/>
<path d="M3.34183 6.38603L3.33979 6.38783L2.99988 6.0001C2.76166 6.21316 2.57156 6.47452 2.44224 6.76679C2.31291 7.05905 2.24734 7.37551 2.24988 7.6951V14.2501C2.24988 14.8468 2.48693 15.4191 2.90889 15.8411C3.33085 16.263 3.90314 16.5001 4.49988 16.5001H13.4999C14.0966 16.5001 14.6689 16.263 15.0908 15.8411C15.5128 15.4191 15.7498 14.8468 15.7498 14.2501V7.6876C15.7513 7.36927 15.6852 7.05426 15.5559 6.76336M3.34183 6.38603C3.15904 6.54997 3.01313 6.75087 2.91376 6.97543C2.81408 7.20071 2.76353 7.44465 2.76549 7.691L2.76552 7.6951H2.76551V14.2501C2.76551 14.7101 2.94823 15.1512 3.27349 15.4765C3.59875 15.8017 4.03989 15.9845 4.49988 15.9845H13.4999C13.9598 15.9845 14.401 15.8017 14.7262 15.4765C15.0515 15.1512 15.2342 14.7101 15.2342 14.2501V7.6876V7.68521C15.2354 7.43983 15.1844 7.19701 15.0848 6.97278L15.5559 6.76336M3.34183 6.38603L7.83978 2.44284L7.83979 2.44286L7.84362 2.43944C8.1616 2.15503 8.57325 1.99779 8.99987 1.99779C9.42648 1.99779 9.83813 2.15503 10.1561 2.43944L10.1561 2.43946L10.16 2.44284L14.6579 6.38602M3.34183 6.38603L14.6579 6.38602M15.5559 6.76336L15.0848 6.97278C14.9854 6.74927 14.8399 6.54931 14.6579 6.38602M15.5559 6.76336C15.4267 6.47247 15.2371 6.21232 14.9999 6.0001L14.6579 6.38602M10.4999 15.5157H11.0155V15.0001V11.2501C11.0155 10.9144 10.8821 10.5925 10.6448 10.3552C10.4074 10.1178 10.0855 9.98447 9.74986 9.98447H8.24987C7.9142 9.98447 7.59229 10.1178 7.35494 10.3552C7.11759 10.5925 6.98425 10.9144 6.98425 11.2501V15.0001V15.5157H7.49987H10.4999ZM11.4842 15.0001V15.5157H11.9999H13.4999C13.8355 15.5157 14.1574 15.3824 14.3948 15.145C14.6321 14.9077 14.7655 14.5857 14.7655 14.2501V7.6876V7.68695C14.7652 7.50724 14.7268 7.32965 14.6526 7.16599C14.5784 7.00232 14.4702 6.85633 14.3352 6.73773L14.3344 6.73705L9.83518 2.80024C9.83502 2.80011 9.83487 2.79997 9.83472 2.79984C9.60382 2.59719 9.30709 2.48544 8.99987 2.48544C8.69262 2.48544 8.39587 2.5972 8.16497 2.79988C8.16483 2.8 8.16469 2.80012 8.16455 2.80024L3.66534 6.73705L3.66457 6.73773C3.52956 6.85633 3.42137 7.00232 3.34717 7.16599C3.27297 7.32966 3.23448 7.50725 3.23425 7.68695V7.6876V14.2501C3.23425 14.5857 3.3676 14.9077 3.60495 15.145C3.8423 15.3824 4.16421 15.5157 4.49988 15.5157H5.99987H6.5155V15.0001V11.2501C6.5155 10.7901 6.69822 10.349 7.02348 10.0237C7.34874 9.69845 7.78988 9.51572 8.24987 9.51572H9.74986C10.2098 9.51572 10.651 9.69845 10.9762 10.0237C11.3015 10.349 11.4842 10.7901 11.4842 11.2501V15.0001Z" stroke="black" stroke-opacity="0.6"/>
</svg>
