<svg width="20" height="13" viewBox="0 0 20 13" fill="none" xmlns="http://www.w3.org/2000/svg">
<path d="M12.81 6.19558C13.443 5.7859 13.7996 5.24863 13.81 4.68888C13.81 4.08467 13.4118 3.50522 12.7029 3.07799C11.994 2.65075 11.0325 2.41073 10.03 2.41073C9.02748 2.41073 8.06602 2.65075 7.35714 3.07799C6.64825 3.50522 6.25 4.08467 6.25 4.68888C6.26044 5.24863 6.61702 5.7859 7.25 6.19558C6.36865 6.46008 5.61022 6.85247 5.04292 7.33745C4.47561 7.82243 4.11723 8.38479 4 8.97395C3.97083 9.13379 4.0482 9.29407 4.21511 9.41953C4.38202 9.54499 4.62478 9.62535 4.89 9.64293C5.15522 9.66051 5.42116 9.61388 5.62932 9.51329C5.83749 9.41269 5.97083 9.26639 6 9.10654C6.11933 8.52263 6.58885 7.98516 7.32009 7.59541C8.05133 7.20565 8.99382 6.99051 9.97 6.99051C10.9462 6.99051 11.8887 7.20565 12.6199 7.59541C13.3512 7.98516 13.8207 8.52263 13.94 9.10654C13.9678 9.26108 14.0936 9.40316 14.2911 9.50312C14.4887 9.60307 14.7426 9.65316 15 9.64293H15.11C15.3721 9.62475 15.6117 9.54487 15.7766 9.42069C15.9414 9.29651 16.0181 9.1381 15.99 8.97998C15.8815 8.39392 15.5344 7.83309 14.9796 7.34734C14.4248 6.86158 13.6796 6.46595 12.81 6.19558ZM10 5.76165C9.64795 5.76165 9.3038 5.69873 9.01108 5.58086C8.71836 5.46298 8.49022 5.29543 8.35549 5.09941C8.22077 4.90338 8.18552 4.68769 8.2542 4.47959C8.32288 4.27149 8.49241 4.08034 8.74135 3.93031C8.99029 3.78028 9.30745 3.67811 9.65274 3.63671C9.99803 3.59532 10.3559 3.61656 10.6812 3.69776C11.0064 3.77895 11.2844 3.91646 11.48 4.09287C11.6756 4.26929 11.78 4.4767 11.78 4.68888C11.78 4.97339 11.5925 5.24626 11.2586 5.44744C10.9248 5.64863 10.4721 5.76165 10 5.76165ZM17 0H3C2.20435 0 1.44129 0.19049 0.87868 0.529566C0.316071 0.868641 0 1.32852 0 1.80805V10.2456C0 10.7251 0.316071 11.185 0.87868 11.5241C1.44129 11.8632 2.20435 12.0537 3 12.0537H17C17.7956 12.0537 18.5587 11.8632 19.1213 11.5241C19.6839 11.185 20 10.7251 20 10.2456V1.80805C20 1.32852 19.6839 0.868641 19.1213 0.529566C18.5587 0.19049 17.7956 0 17 0ZM18 10.2456C18 10.4055 17.8946 10.5588 17.7071 10.6718C17.5196 10.7848 17.2652 10.8483 17 10.8483H3C2.73478 10.8483 2.48043 10.7848 2.29289 10.6718C2.10536 10.5588 2 10.4055 2 10.2456V1.80805C2 1.64821 2.10536 1.49491 2.29289 1.38189C2.48043 1.26886 2.73478 1.20537 3 1.20537H17C17.2652 1.20537 17.5196 1.26886 17.7071 1.38189C17.8946 1.49491 18 1.64821 18 1.80805V10.2456Z" fill="black" fill-opacity="0.38"/>
</svg>
