<svg width="18" height="18" viewBox="0 0 18 18" fill="none" xmlns="http://www.w3.org/2000/svg">
<path d="M9.20237 11.8825L9.22272 11.9418L9.2358 11.9621C9.2358 11.9621 9.2358 11.9621 9.2358 11.9621L9.23463 11.9779L9.23444 11.9938C9.23407 12.0244 9.2277 12.0547 9.21569 12.0828L9.21006 12.096L9.20518 12.1095C9.19722 12.1315 9.18454 12.1515 9.16801 12.168C9.15149 12.1845 9.13153 12.1972 9.10955 12.2052L9.09284 12.2112L9.07658 12.2184C9.05247 12.2291 9.02639 12.2346 9.00003 12.2346C8.97366 12.2346 8.94759 12.2291 8.92347 12.2184L8.90722 12.2112L8.8905 12.2052C8.86852 12.1972 8.84857 12.1845 8.83204 12.168L8.46744 12.5326L8.83204 12.168C8.81552 12.1515 8.80283 12.1315 8.79488 12.1095L8.78999 12.096L8.78436 12.0828C8.77257 12.0552 8.76621 12.0255 8.76564 11.9954C8.76567 11.9651 8.77158 11.9351 8.78304 11.9071C8.79312 11.8824 8.80733 11.8596 8.82502 11.8398C8.85173 11.8174 8.88167 11.7992 8.91384 11.7858L8.9149 11.7853C8.95758 11.7674 9.00462 11.7625 9.05009 11.7712C9.08841 11.7786 9.12417 11.7954 9.15419 11.82L9.20058 11.878C9.20124 11.8795 9.20184 11.881 9.20237 11.8825ZM9.25668 11.9944C9.25659 11.9943 9.25651 11.9942 9.25642 11.994L9.25668 11.9944ZM8.8343 5.8343C8.87825 5.79035 8.93787 5.76566 9.00003 5.76566C9.06219 5.76566 9.1218 5.79035 9.16575 5.8343C9.20971 5.87826 9.2344 5.93787 9.2344 6.00003V9.00002C9.2344 9.06218 9.20971 9.1218 9.16575 9.16575C9.1218 9.2097 9.06219 9.2344 9.00003 9.2344C8.93787 9.2344 8.87825 9.2097 8.8343 9.16575C8.79035 9.1218 8.76565 9.06218 8.76565 9.00002V6.00003C8.76565 5.93787 8.79035 5.87826 8.8343 5.8343ZM5.11973 3.19274C6.2683 2.42529 7.61865 2.01567 9.00003 2.01567C9.91723 2.01567 10.8254 2.19632 11.6728 2.54732C12.5202 2.89831 13.2902 3.41278 13.9387 4.06134C14.5873 4.70989 15.1017 5.47984 15.4527 6.32722C15.8037 7.17461 15.9844 8.08282 15.9844 9.00002C15.9844 10.3814 15.5748 11.7318 14.8073 12.8803C14.0399 14.0289 12.949 14.9241 11.6728 15.4527C10.3966 15.9814 8.99228 16.1197 7.63745 15.8502C6.28261 15.5807 5.03812 14.9155 4.06134 13.9387C3.08456 12.9619 2.41936 11.7174 2.14987 10.3626C1.88038 9.00777 2.01869 7.60345 2.54732 6.32722C3.07595 5.051 3.97115 3.96019 5.11973 3.19274ZM5.38015 14.4176C6.45163 15.1335 7.71136 15.5156 9.00003 15.5156C10.7281 15.5156 12.3853 14.8292 13.6073 13.6073C14.8292 12.3853 15.5156 10.7281 15.5156 9.00002C15.5156 7.71136 15.1335 6.45163 14.4176 5.38014C13.7016 4.30866 12.684 3.47354 11.4934 2.98039C10.3029 2.48723 8.9928 2.3582 7.72889 2.60961C6.46499 2.86102 5.30402 3.48157 4.3928 4.39279C3.48157 5.30402 2.86102 6.46499 2.60961 7.72889C2.35821 8.9928 2.48724 10.3029 2.98039 11.4934C3.47354 12.684 4.30866 13.7016 5.38015 14.4176Z" fill="white" stroke="white"/>
</svg>
