<svg width="16" height="16" viewBox="0 0 16 16" fill="none" xmlns="http://www.w3.org/2000/svg">
<path d="M11.5599 3.63992C11.4017 3.63992 11.247 3.68684 11.1155 3.77474C10.9839 3.86265 10.8814 3.98759 10.8208 4.13377C10.7603 4.27995 10.7444 4.44081 10.7753 4.59599C10.8062 4.75118 10.8824 4.89372 10.9942 5.0056C11.1061 5.11749 11.2487 5.19368 11.4038 5.22455C11.559 5.25541 11.7199 5.23957 11.8661 5.17902C12.0122 5.11847 12.1372 5.01593 12.2251 4.88438C12.313 4.75282 12.3599 4.59814 12.3599 4.43992C12.3599 4.22775 12.2756 4.02426 12.1256 3.87423C11.9756 3.7242 11.7721 3.63992 11.5599 3.63992ZM14.6266 5.25325C14.6136 4.70012 14.51 4.15285 14.3199 3.63325C14.1504 3.18867 13.8866 2.7861 13.5466 2.45325C13.2165 2.11154 12.813 1.84937 12.3666 1.68659C11.8484 1.49069 11.3005 1.38473 10.7466 1.37325C10.0399 1.33325 9.81325 1.33325 7.99992 1.33325C6.18659 1.33325 5.95992 1.33325 5.25325 1.37325C4.69935 1.38473 4.15148 1.49069 3.63325 1.68659C3.1877 1.85102 2.78454 2.11296 2.45325 2.45325C2.11154 2.78337 1.84937 3.18688 1.68659 3.63325C1.49069 4.15148 1.38473 4.69935 1.37325 5.25325C1.33325 5.95992 1.33325 6.18659 1.33325 7.99992C1.33325 9.81325 1.33325 10.0399 1.37325 10.7466C1.38473 11.3005 1.49069 11.8484 1.68659 12.3666C1.84937 12.813 2.11154 13.2165 2.45325 13.5466C2.78454 13.8869 3.1877 14.1488 3.63325 14.3133C4.15148 14.5091 4.69935 14.6151 5.25325 14.6266C5.95992 14.6666 6.18659 14.6666 7.99992 14.6666C9.81325 14.6666 10.0399 14.6666 10.7466 14.6266C11.3005 14.6151 11.8484 14.5091 12.3666 14.3133C12.813 14.1505 13.2165 13.8883 13.5466 13.5466C13.8881 13.215 14.1521 12.812 14.3199 12.3666C14.51 11.847 14.6136 11.2997 14.6266 10.7466C14.6266 10.0399 14.6666 9.81325 14.6666 7.99992C14.6666 6.18659 14.6666 5.95992 14.6266 5.25325ZM13.4266 10.6666C13.4217 11.0898 13.3451 11.5091 13.1999 11.9066C13.0935 12.1967 12.9225 12.4589 12.6999 12.6733C12.4837 12.8936 12.2221 13.0642 11.9333 13.1733C11.5357 13.3184 11.1164 13.3951 10.6933 13.3999C10.0266 13.4333 9.77992 13.4399 8.02659 13.4399C6.27325 13.4399 6.02659 13.4399 5.35992 13.3999C4.92051 13.4081 4.48298 13.3405 4.06659 13.1999C3.79044 13.0853 3.54082 12.9151 3.33325 12.6999C3.11198 12.4858 2.94315 12.2234 2.83992 11.9333C2.67716 11.53 2.58688 11.1012 2.57325 10.6666C2.57325 9.99992 2.53325 9.75325 2.53325 7.99992C2.53325 6.24659 2.53325 5.99992 2.57325 5.33325C2.57624 4.90062 2.65522 4.47188 2.80659 4.06659C2.92395 3.78519 3.1041 3.53436 3.33325 3.33325C3.53579 3.10403 3.78611 2.92198 4.06659 2.79992C4.47295 2.65328 4.90125 2.57664 5.33325 2.57325C5.99992 2.57325 6.24659 2.53325 7.99992 2.53325C9.75325 2.53325 9.99992 2.53325 10.6666 2.57325C11.0898 2.57811 11.5091 2.65475 11.9066 2.79992C12.2095 2.91235 12.4814 3.09515 12.6999 3.33325C12.9184 3.53804 13.0891 3.78841 13.1999 4.06659C13.3481 4.47254 13.4248 4.90111 13.4266 5.33325C13.4599 5.99992 13.4666 6.24659 13.4666 7.99992C13.4666 9.75325 13.4599 9.99992 13.4266 10.6666ZM7.99992 4.57992C7.32379 4.58124 6.66323 4.78294 6.10169 5.15953C5.54015 5.53613 5.10284 6.07072 4.84501 6.69575C4.58718 7.32079 4.5204 8.00823 4.65311 8.67121C4.78583 9.33418 5.11208 9.94294 5.59064 10.4206C6.0692 10.8982 6.67859 11.2233 7.34183 11.3547C8.00506 11.4861 8.69236 11.418 9.3169 11.1589C9.94143 10.8999 10.4752 10.4615 10.8507 9.89927C11.2262 9.337 11.4266 8.67605 11.4266 7.99992C11.4275 7.54999 11.3394 7.10432 11.1674 6.68856C10.9954 6.27279 10.743 5.89513 10.4245 5.57729C10.106 5.25945 9.72789 5.0077 9.31178 4.83654C8.89568 4.66537 8.44985 4.57816 7.99992 4.57992ZM7.99992 10.2199C7.56084 10.2199 7.13163 10.0897 6.76655 9.84578C6.40148 9.60184 6.11693 9.25513 5.94891 8.84948C5.78088 8.44382 5.73692 7.99746 5.82258 7.56682C5.90823 7.13618 6.11967 6.74061 6.43014 6.43014C6.74061 6.11967 7.13618 5.90823 7.56682 5.82258C7.99746 5.73692 8.44382 5.78088 8.84948 5.94891C9.25513 6.11693 9.60184 6.40148 9.84578 6.76655C10.0897 7.13163 10.2199 7.56084 10.2199 7.99992C10.2199 8.29145 10.1625 8.58013 10.0509 8.84948C9.93937 9.11882 9.77584 9.36355 9.5697 9.5697C9.36355 9.77584 9.11882 9.93937 8.84948 10.0509C8.58013 10.1625 8.29145 10.2199 7.99992 10.2199Z" fill="black" fill-opacity="0.87"/>
</svg>
