<svg width="20" height="20" viewBox="0 0 20 20" fill="none" xmlns="http://www.w3.org/2000/svg">
<path d="M18.0916 16.9083L15 13.8416C16.2001 12.3453 16.7812 10.446 16.624 8.53434C16.4667 6.62267 15.583 4.84391 14.1546 3.56379C12.7261 2.28368 10.8615 1.59951 8.94408 1.65198C7.02668 1.70445 5.20225 2.48956 3.84593 3.84587C2.48962 5.20219 1.70451 7.02662 1.65204 8.94402C1.59957 10.8614 2.28374 12.7261 3.56385 14.1545C4.84397 15.583 6.62273 16.4667 8.5344 16.6239C10.4461 16.7812 12.3453 16.2 13.8416 14.9999L16.9083 18.0666C16.9858 18.1447 17.078 18.2067 17.1795 18.249C17.281 18.2913 17.39 18.3131 17.5 18.3131C17.61 18.3131 17.7189 18.2913 17.8205 18.249C17.922 18.2067 18.0142 18.1447 18.0916 18.0666C18.2418 17.9112 18.3258 17.7035 18.3258 17.4874C18.3258 17.2713 18.2418 17.0636 18.0916 16.9083ZM9.16665 14.9999C8.01292 14.9999 6.88511 14.6578 5.92582 14.0168C4.96653 13.3759 4.21886 12.4648 3.77735 11.3989C3.33584 10.333 3.22032 9.16012 3.4454 8.02856C3.67048 6.89701 4.22605 5.8576 5.04186 5.0418C5.85766 4.22599 6.89707 3.67042 8.02862 3.44534C9.16018 3.22026 10.3331 3.33578 11.399 3.77729C12.4649 4.2188 13.3759 4.96647 14.0169 5.92576C14.6579 6.88505 15 8.01286 15 9.16659C15 10.7137 14.3854 12.1974 13.2914 13.2914C12.1975 14.3853 10.7137 14.9999 9.16665 14.9999Z" fill="#E0E0E0"/>
</svg>
