{"asset":{"version":"2.0","generator":"Blockbench 4.9.4 glTF exporter"},"scenes":[{"nodes":[1,3],"name":"blockbench_export"}],"scene":0,"nodes":[{"name":"LeftHand2"},{"translation":[-0.21875,0.96875,0],"name":"LeftHand2","mesh":0,"children":[0],"skin":0},{"name":"RightHand"},{"translation":[0.28125,0.96875,0],"name":"RightHand","mesh":1,"children":[2],"skin":1}],"bufferViews":[{"buffer":0,"byteOffset":0,"byteLength":576,"target":34962,"byteStride":12},{"buffer":0,"byteOffset":576,"byteLength":576,"target":34962,"byteStride":12},{"buffer":0,"byteOffset":1152,"byteLength":384,"target":34962,"byteStride":8},{"buffer":0,"byteOffset":1536,"byteLength":384,"target":34962,"byteStride":8},{"buffer":0,"byteOffset":1920,"byteLength":768,"target":34962,"byteStride":16},{"buffer":0,"byteOffset":2688,"byteLength":144,"target":34963},{"buffer":0,"byteOffset":2832,"byteLength":576,"target":34962,"byteStride":12},{"buffer":0,"byteOffset":3408,"byteLength":576,"target":34962,"byteStride":12},{"buffer":0,"byteOffset":3984,"byteLength":384,"target":34962,"byteStride":8},{"buffer":0,"byteOffset":4368,"byteLength":384,"target":34962,"byteStride":8},{"buffer":0,"byteOffset":4752,"byteLength":768,"target":34962,"byteStride":16},{"buffer":0,"byteOffset":5520,"byteLength":144,"target":34963},{"buffer":0,"byteOffset":5664,"byteLength":64},{"buffer":0,"byteOffset":5728,"byteLength":64}],"buffers":[{"byteLength":5792,"uri":"data:application/octet-stream;base64,"}],"accessors":[{"bufferView":0,"componentType":5126,"count":48,"max":[0.046875,0.046875,0.078125],"min":[-0.109375,-0.296875,-0.078125],"type":"VEC3"},{"bufferView":1,"componentType":5126,"count":48,"max":[1,1,1],"min":[-1,-1,-1],"type":"VEC3"},{"bufferView":2,"componentType":5126,"count":48,"max":[0.875,0.75],"min":[0.625,0.25],"type":"VEC2"},{"bufferView":3,"componentType":5123,"count":48,"max":[0,0,0,0],"min":[0,0,0,0],"type":"VEC4"},{"bufferView":4,"componentType":5126,"count":48,"max":[0,1,0,0],"min":[0,1,0,0],"type":"VEC4"},{"bufferView":5,"componentType":5123,"count":72,"max":[47],"min":[0],"type":"SCALAR"},{"bufferView":6,"componentType":5126,"count":48,"max":[0.046875,0.046875,0.078125],"min":[-0.109375,-0.296875,-0.078125],"type":"VEC3"},{"bufferView":7,"componentType":5126,"count":48,"max":[1,1,1],"min":[-1,-1,-1],"type":"VEC3"},{"bufferView":8,"componentType":5126,"count":48,"max":[1,1],"min":[0.5,0.75],"type":"VEC2"},{"bufferView":9,"componentType":5123,"count":48,"max":[0,0,0,0],"min":[0,0,0,0],"type":"VEC4"},{"bufferView":10,"componentType":5126,"count":48,"max":[0,1,0,0],"min":[0,1,0,0],"type":"VEC4"},{"bufferView":11,"componentType":5123,"count":72,"max":[47],"min":[0],"type":"SCALAR"},{"bufferView":12,"componentType":5126,"count":1,"max":[1,0,0,0,0,1,0,0,0,0,1,0,0,0,0,1],"min":[1,0,0,0,0,1,0,0,0,0,1,0,0,0,0,1],"type":"MAT4"},{"bufferView":13,"componentType":5126,"count":1,"max":[1,0,0,0,0,1,0,0,0,0,1,0,0,0,0,1],"min":[1,0,0,0,0,1,0,0,0,0,1,0,0,0,0,1],"type":"MAT4"}],"materials":[{"pbrMetallicRoughness":{"metallicFactor":0,"roughnessFactor":1,"baseColorTexture":{"index":0}},"alphaMode":"MASK","alphaCutoff":0.05,"doubleSided":true}],"textures":[{"sampler":0,"source":0}],"samplers":[{"magFilter":9728,"minFilter":9728,"wrapS":33071,"wrapT":33071}],"images":[{"mimeType":"image/png","uri":"data:image/png;base64,"}],"meshes":[{"primitives":[{"mode":4,"attributes":{"POSITION":0,"NORMAL":1,"TEXCOORD_0":2,"JOINTS_0":3,"WEIGHTS_0":4},"indices":5,"material":0}]},{"primitives":[{"mode":4,"attributes":{"POSITION":6,"NORMAL":7,"TEXCOORD_0":8,"JOINTS_0":9,"WEIGHTS_0":10},"indices":11,"material":0}]}],"skins":[{"inverseBindMatrices":12,"joints":[0],"skeleton":0},{"inverseBindMatrices":13,"joints":[2],"skeleton":2}]}