{"asset":{"version":"2.0","generator":"Blockbench 4.9.4 glTF exporter"},"scenes":[{"nodes":[15],"name":"blockbench_export"}],"scene":0,"nodes":[{"translation":[0,-1.5,0],"name":"Jaw"},{"name":"Head","children":[0]},{"translation":[0,-0.3125,0],"name":"RightHand"},{"translation":[0.0625,-0.375,0],"name":"RightArm2","children":[2]},{"translation":[0.21875,0.15625,0],"name":"RightArm","children":[3]},{"translation":[0,-0.3125,0],"name":"LeftHand2"},{"translation":[0,-0.375,0],"name":"LeftArm2","children":[5]},{"translation":[-0.21875,0.15625,0],"name":"LeftArm","children":[6]},{"name":"RightLeg2"},{"translation":[0.012500000000000011,-0.875,0],"name":"RightFoot"},{"translation":[0.11875,-0.75,0],"name":"RightLeg","children":[8,9]},{"translation":[0,-0.6875,0],"name":"LeftFoot"},{"name":"LeftLeg3","children":[11]},{"translation":[-0.11875,-0.75,0],"name":"LeftLeg","children":[12]},{"name":"Body","children":[1,4,7,10,13]},{"translation":[0,1.5,0],"name":"Body","mesh":0,"children":[14],"skin":0}],"bufferViews":[{"buffer":0,"byteOffset":0,"byteLength":10080,"target":34962,"byteStride":12},{"buffer":0,"byteOffset":10080,"byteLength":10080,"target":34962,"byteStride":12},{"buffer":0,"byteOffset":20160,"byteLength":6720,"target":34962,"byteStride":8},{"buffer":0,"byteOffset":26880,"byteLength":6720,"target":34962,"byteStride":8},{"buffer":0,"byteOffset":33600,"byteLength":13440,"target":34962,"byteStride":16},{"buffer":0,"byteOffset":47040,"byteLength":2520,"target":34963},{"buffer":0,"byteOffset":49560,"byteLength":960}],"buffers":[{"byteLength":50520,"uri":"data:application/octet-stream;base64,"}],"accessors":[{"bufferView":0,"componentType":5126,"count":840,"max":[0.328125,0.515625,0.140625],"min":[-0.328125,-1.515625,-0.390625],"type":"VEC3"},{"bufferView":1,"componentType":5126,"count":840,"max":[1,1,1],"min":[-1,-1,-1],"type":"VEC3"},{"bufferView":2,"componentType":5126,"count":840,"max":[1,1],"min":[0,0],"type":"VEC2"},{"bufferView":3,"componentType":5123,"count":840,"max":[0,14,0,0],"min":[0,0,0,0],"type":"VEC4"},{"bufferView":4,"componentType":5126,"count":840,"max":[0,1,0,0],"min":[0,1,0,0],"type":"VEC4"},{"bufferView":5,"componentType":5123,"count":1260,"max":[839],"min":[0],"type":"SCALAR"},{"bufferView":6,"componentType":5126,"count":15,"max":[1,0,0,0,0,1,0,0,0,0,1,0,0.21875,1.625,0,1],"min":[1,0,0,0,0,1,0,0,0,0,1,0,-0.28125,-0.15625,0,1],"type":"MAT4"}],"materials":[{"pbrMetallicRoughness":{"metallicFactor":0,"roughnessFactor":1,"baseColorTexture":{"index":0}},"alphaMode":"MASK","alphaCutoff":0.05,"doubleSided":true}],"textures":[{"sampler":0,"source":0}],"samplers":[{"magFilter":9728,"minFilter":9728,"wrapS":33071,"wrapT":33071}],"images":[{"mimeType":"image/png","uri":"data:image/png;base64,"}],"meshes":[{"primitives":[{"mode":4,"attributes":{"POSITION":0,"NORMAL":1,"TEXCOORD_0":2,"JOINTS_0":3,"WEIGHTS_0":4},"indices":5,"material":0}]}],"skins":[{"inverseBindMatrices":6,"joints":[14,1,0,4,3,2,7,6,5,10,8,9,13,12,11],"skeleton":14}]}