{"asset":{"version":"2.0","generator":"Blockbench 4.9.4 glTF exporter"},"scenes":[{"nodes":[39],"name":"blockbench_export"}],"scene":0,"nodes":[{"translation":[0,0.5374999999999999,-0.07500000000000018],"name":"Body2"},{"translation":[0.05781250000000002,0.10312500000000036,-0.09375],"name":"Mouth"},{"translation":[-0.05937499999999999,0.10312500000000036,-0.09375],"name":"Mouth2"},{"translation":[-6.938893903907228e-18,0.09375,-0.03125],"name":"Jaw"},{"translation":[0,0.6937499999999999,-0.07500000000000018],"name":"Head","children":[1,2,3]},{"translation":[0.006249999999999978,-0.07499999999999984,0],"name":"Falange6"},{"translation":[0.018749999999999933,-0.1875,-0.04687499999999978],"name":"Finger6","children":[5]},{"translation":[0.006249999999999978,-0.07499999999999984,0],"name":"Falange7"},{"translation":[0.018750000000000044,-0.1875,-0.015624999999999778],"name":"Finger7","children":[7]},{"translation":[0,-0.07499999999999984,1.734723475976807e-17],"name":"Falange8"},{"translation":[0.018749999999999933,-0.1875,0.015625000000000222],"name":"Finger8","children":[9]},{"translation":[0,-0.07500000000000007,1.3877787807814457e-17],"name":"Falange9"},{"translation":[0.018749999999999933,-0.1875,0.04687500000000022],"name":"Finger9","children":[11]},{"translation":[-1.1102230246251565e-16,-0.028125000000000067,1.3877787807814457e-17],"name":"Falange10"},{"translation":[0,-0.15000000000000013,-0.07812499999999978],"name":"Finger10","children":[13]},{"translation":[0.0249999999999998,-0.3125000000000001,-2.220446049250313e-16],"name":"RightHand","children":[6,8,10,12,14]},{"translation":[0.03750000000000009,-0.25,0],"name":"RightArm2","children":[15]},{"translation":[0.25,0.5687499999999999,-0.07500000000000018],"name":"RightArm","children":[16]},{"translation":[0,-0.07499999999999984,0],"name":"Falange1"},{"translation":[-0.018750000000000044,-0.18749999999999978,-0.04687499999999978],"name":"Finger1","children":[18]},{"translation":[0,-0.07500000000000007,0],"name":"Falange2"},{"translation":[-0.018750000000000044,-0.18749999999999978,-0.015624999999999778],"name":"Finger2","children":[20]},{"translation":[0,-0.09375,0],"name":"Falange3"},{"translation":[-0.018750000000000044,-0.18749999999999978,0.015625000000000222],"name":"Finger3","children":[22]},{"translation":[0,-0.09375,0],"name":"Falange4"},{"translation":[-0.018750000000000044,-0.18749999999999978,0.04687500000000022],"name":"Finger4","children":[24]},{"translation":[0,-0.028125000000000067,1.3877787807814457e-17],"name":"Falange5"},{"translation":[-1.1102230246251565e-16,-0.1499999999999999,-0.07812499999999978],"name":"Finger5","children":[26]},{"translation":[-0.03125,-0.31250000000000033,-2.220446049250313e-16],"name":"LeftHand2","children":[19,21,23,25,27]},{"translation":[-0.03125,-0.25,0],"name":"LeftArm2","children":[28]},{"translation":[-0.25,0.5687499999999999,-0.07500000000000018],"name":"LeftArm","children":[29]},{"translation":[0,-0.375,0.078125],"name":"RightFoot"},{"translation":[0,-0.46874999999999933,-0.03125],"name":"RightLeg2","children":[31]},{"translation":[0.11249999999999999,-6.661338147750939e-16,0],"name":"RightLeg","children":[32]},{"translation":[0,-0.375,0.0625],"name":"LeftFoot"},{"translation":[0,-0.46874999999999956,0],"name":"LeftLeg3","children":[34]},{"translation":[-0.125,-4.440892098500626e-16,-0.03125],"name":"LeftLeg","children":[35]},{"translation":[0.0062500000000000056,-0.08750000000000013,-0.04375000000000018],"name":"Hip","children":[33,36]},{"name":"Body","children":[0,4,17,30,37]},{"translation":[0,0.9937500000000001,0.07500000000000018],"name":"Body","mesh":0,"children":[38],"skin":0}],"bufferViews":[{"buffer":0,"byteOffset":0,"byteLength":16992,"target":34962,"byteStride":12},{"buffer":0,"byteOffset":16992,"byteLength":16992,"target":34962,"byteStride":12},{"buffer":0,"byteOffset":33984,"byteLength":11328,"target":34962,"byteStride":8},{"buffer":0,"byteOffset":45312,"byteLength":11328,"target":34962,"byteStride":8},{"buffer":0,"byteOffset":56640,"byteLength":22656,"target":34962,"byteStride":16},{"buffer":0,"byteOffset":79296,"byteLength":4248,"target":34963},{"buffer":0,"byteOffset":83544,"byteLength":2496},{"buffer":0,"byteOffset":86040,"byteLength":4},{"buffer":0,"byteOffset":86044,"byteLength":16},{"buffer":0,"byteOffset":86060,"byteLength":12},{"buffer":0,"byteOffset":86072,"byteLength":36},{"buffer":0,"byteOffset":86108,"byteLength":32},{"buffer":0,"byteOffset":86140,"byteLength":128},{"buffer":0,"byteOffset":86268,"byteLength":20},{"buffer":0,"byteOffset":86288,"byteLength":60},{"buffer":0,"byteOffset":86348,"byteLength":20},{"buffer":0,"byteOffset":86368,"byteLength":60},{"buffer":0,"byteOffset":86428,"byteLength":16},{"buffer":0,"byteOffset":86444,"byteLength":48},{"buffer":0,"byteOffset":86492,"byteLength":16},{"buffer":0,"byteOffset":86508,"byteLength":48},{"buffer":0,"byteOffset":86556,"byteLength":4},{"buffer":0,"byteOffset":86560,"byteLength":16},{"buffer":0,"byteOffset":86576,"byteLength":12},{"buffer":0,"byteOffset":86588,"byteLength":48},{"buffer":0,"byteOffset":86636,"byteLength":12},{"buffer":0,"byteOffset":86648,"byteLength":48},{"buffer":0,"byteOffset":86696,"byteLength":12},{"buffer":0,"byteOffset":86708,"byteLength":48},{"buffer":0,"byteOffset":86756,"byteLength":12},{"buffer":0,"byteOffset":86768,"byteLength":48},{"buffer":0,"byteOffset":86816,"byteLength":12},{"buffer":0,"byteOffset":86828,"byteLength":48},{"buffer":0,"byteOffset":86876,"byteLength":12},{"buffer":0,"byteOffset":86888,"byteLength":48},{"buffer":0,"byteOffset":86936,"byteLength":16},{"buffer":0,"byteOffset":86952,"byteLength":64},{"buffer":0,"byteOffset":87016,"byteLength":16},{"buffer":0,"byteOffset":87032,"byteLength":64},{"buffer":0,"byteOffset":87096,"byteLength":12},{"buffer":0,"byteOffset":87108,"byteLength":48},{"buffer":0,"byteOffset":87156,"byteLength":16},{"buffer":0,"byteOffset":87172,"byteLength":64},{"buffer":0,"byteOffset":87236,"byteLength":16},{"buffer":0,"byteOffset":87252,"byteLength":64},{"buffer":0,"byteOffset":87316,"byteLength":8},{"buffer":0,"byteOffset":87324,"byteLength":32},{"buffer":0,"byteOffset":87356,"byteLength":68},{"buffer":0,"byteOffset":87424,"byteLength":272},{"buffer":0,"byteOffset":87696,"byteLength":8},{"buffer":0,"byteOffset":87704,"byteLength":32},{"buffer":0,"byteOffset":87736,"byteLength":8},{"buffer":0,"byteOffset":87744,"byteLength":32},{"buffer":0,"byteOffset":87776,"byteLength":68},{"buffer":0,"byteOffset":87844,"byteLength":272}],"buffers":[{"byteLength":88116,"uri":"data:application/octet-stream;base64,"}],"accessors":[{"bufferView":0,"componentType":5126,"count":1416,"max":[0.390625,1.021875023841858,0.06562500447034836],"min":[-0.390625,-1.009374976158142,-0.27812498807907104],"type":"VEC3"},{"bufferView":1,"componentType":5126,"count":1416,"max":[1,1,1],"min":[-1,-1,-1],"type":"VEC3"},{"bufferView":2,"componentType":5126,"count":1416,"max":[1,1],"min":[0,0],"type":"VEC2"},{"bufferView":3,"componentType":5123,"count":1416,"max":[0,38,0,0],"min":[0,0,0,0],"type":"VEC4"},{"bufferView":4,"componentType":5126,"count":1416,"max":[0,1,0,0],"min":[0,1,0,0],"type":"VEC4"},{"bufferView":5,"componentType":5123,"count":2124,"max":[1415],"min":[0],"type":"SCALAR"},{"bufferView":6,"componentType":5126,"count":39,"max":[1,0,0,0,0,1,0,0,0,0,1,0,0.33125001192092896,0.9312499761581421,0.16875000298023224,1],"min":[1,0,0,0,0,1,0,0,0,0,1,0,-0.3375000059604645,-0.796875,-0.0031250000465661287,1],"type":"MAT4"},{"bufferView":7,"componentType":5126,"count":1,"max":[0],"min":[0],"type":"SCALAR"},{"bufferView":8,"componentType":5126,"count":1,"max":[0,0,0,1],"min":[0,0,0,1],"type":"VEC4"},{"bufferView":9,"componentType":5126,"count":3,"max":[1],"min":[0],"type":"SCALAR"},{"bufferView":10,"componentType":5126,"count":3,"max":[1.100000023841858,1.2999999523162842,1.100000023841858],"min":[1,1,1],"type":"VEC3"},{"bufferView":11,"componentType":5126,"count":8,"max":[0.875],"min":[0],"type":"SCALAR"},{"bufferView":12,"componentType":5126,"count":8,"max":[0,0,0,1],"min":[-0.13052618503570557,0,0,0.9914448857307434],"type":"VEC4"},{"bufferView":13,"componentType":5126,"count":5,"max":[0.9166666865348816],"min":[0],"type":"SCALAR"},{"bufferView":14,"componentType":5126,"count":5,"max":[0.05781250074505806,0.10312499850988388,-0.09375],"min":[0.04062499850988388,0.10312499850988388,-0.09375],"type":"VEC3"},{"bufferView":15,"componentType":5126,"count":5,"max":[0.9166666865348816],"min":[0],"type":"SCALAR"},{"bufferView":16,"componentType":5126,"count":5,"max":[1.5,1,1],"min":[1,1,1],"type":"VEC3"},{"bufferView":17,"componentType":5126,"count":4,"max":[0.625],"min":[0],"type":"SCALAR"},{"bufferView":18,"componentType":5126,"count":4,"max":[-0.04218750074505806,0.10312499850988388,-0.09375],"min":[-0.05937499925494194,0.10312499850988388,-0.09375],"type":"VEC3"},{"bufferView":19,"componentType":5126,"count":4,"max":[0.625],"min":[0],"type":"SCALAR"},{"bufferView":20,"componentType":5126,"count":4,"max":[1.5,1,1],"min":[1,1,1],"type":"VEC3"},{"bufferView":21,"componentType":5126,"count":1,"max":[0.5],"min":[0.5],"type":"SCALAR"},{"bufferView":22,"componentType":5126,"count":1,"max":[0,0,0,1],"min":[0,0,0,1],"type":"VEC4"},{"bufferView":23,"componentType":5126,"count":3,"max":[1],"min":[0],"type":"SCALAR"},{"bufferView":24,"componentType":5126,"count":3,"max":[0.3214394748210907,0,0,0.9762960076332092],"min":[-0.2164396196603775,0,0,0.9469301104545593],"type":"VEC4"},{"bufferView":25,"componentType":5126,"count":3,"max":[1],"min":[0],"type":"SCALAR"},{"bufferView":26,"componentType":5126,"count":3,"max":[0.24618060886859894,0.22257450222969055,0,1],"min":[0,0,-0.06262485682964325,0.9412405490875244],"type":"VEC4"},{"bufferView":27,"componentType":5126,"count":3,"max":[1],"min":[0],"type":"SCALAR"},{"bufferView":28,"componentType":5126,"count":3,"max":[0.3214394748210907,0,0,0.9762960076332092],"min":[-0.2164396196603775,0,0,0.9469301104545593],"type":"VEC4"},{"bufferView":29,"componentType":5126,"count":3,"max":[1],"min":[0],"type":"SCALAR"},{"bufferView":30,"componentType":5126,"count":3,"max":[0.24410077929496765,0,0.05387159809470177,1],"min":[0,-0.22485320270061493,0,0.9417821764945984],"type":"VEC4"},{"bufferView":31,"componentType":5126,"count":3,"max":[1],"min":[0],"type":"SCALAR"},{"bufferView":32,"componentType":5126,"count":3,"max":[0,0.258819043636322,0,0.9762960076332092],"min":[0,-0.2164396196603775,0,0.9659258127212524],"type":"VEC4"},{"bufferView":33,"componentType":5126,"count":3,"max":[1],"min":[0],"type":"SCALAR"},{"bufferView":34,"componentType":5126,"count":3,"max":[0.21130913496017456,0.21130913496017456,0.04684610664844513,0.9531539082527161],"min":[-0.21130913496017456,-0.21130913496017456,0.04684610664844513,0.9531539082527161],"type":"VEC4"},{"bufferView":35,"componentType":5126,"count":4,"max":[1],"min":[0],"type":"SCALAR"},{"bufferView":36,"componentType":5126,"count":4,"max":[0.02181488461792469,0,0,1],"min":[-0.6915130615234375,0,0,0.7223639488220215],"type":"VEC4"},{"bufferView":37,"componentType":5126,"count":4,"max":[1],"min":[0],"type":"SCALAR"},{"bufferView":38,"componentType":5126,"count":4,"max":[0.2164396196603775,0,0,0.9807852506637573],"min":[-0.2164396196603775,0,0,0.9762960076332092],"type":"VEC4"},{"bufferView":39,"componentType":5126,"count":3,"max":[1],"min":[0],"type":"SCALAR"},{"bufferView":40,"componentType":5126,"count":3,"max":[0.21130913496017456,0.21130913496017456,-0.04684610664844513,0.9531539082527161],"min":[-0.21130913496017456,-0.21130913496017456,-0.04684610664844513,0.9531539082527161],"type":"VEC4"},{"bufferView":41,"componentType":5126,"count":4,"max":[1],"min":[0],"type":"SCALAR"},{"bufferView":42,"componentType":5126,"count":4,"max":[0,0,0,1],"min":[-0.6915130615234375,0,0,0.7223639488220215],"type":"VEC4"},{"bufferView":43,"componentType":5126,"count":4,"max":[1],"min":[0],"type":"SCALAR"},{"bufferView":44,"componentType":5126,"count":4,"max":[0.2164396196603775,0,0,0.9807852506637573],"min":[-0.2164396196603775,0,0,0.9762960076332092],"type":"VEC4"},{"bufferView":45,"componentType":5126,"count":2,"max":[1],"min":[0.25],"type":"SCALAR"},{"bufferView":46,"componentType":5126,"count":2,"max":[0.7071067690849304,0,0,1],"min":[0,0,0,0.7071067690849304],"type":"VEC4"},{"bufferView":47,"componentType":5126,"count":17,"max":[1],"min":[0],"type":"SCALAR"},{"bufferView":48,"componentType":5126,"count":17,"max":[0.4737338423728943,0.13403896987438202,0.032867416739463806,1],"min":[0,-0.02181488461792469,-0.02067212015390396,0.8800926208496094],"type":"VEC4"},{"bufferView":49,"componentType":5126,"count":2,"max":[1],"min":[0],"type":"SCALAR"},{"bufferView":50,"componentType":5126,"count":2,"max":[0,0,0,1],"min":[0,-0.7071067690849304,0,0.7071067690849304],"type":"VEC4"},{"bufferView":51,"componentType":5126,"count":2,"max":[1],"min":[0.25],"type":"SCALAR"},{"bufferView":52,"componentType":5126,"count":2,"max":[0.7071067690849304,0,0,1],"min":[0,0,0,0.7071067690849304],"type":"VEC4"},{"bufferView":53,"componentType":5126,"count":17,"max":[1],"min":[0],"type":"SCALAR"},{"bufferView":54,"componentType":5126,"count":17,"max":[0.6981091499328613,0.7071067690849304,0.12169492989778519,1],"min":[0,-0.018030840903520584,-0.01080428995192051,0.7071067690849304],"type":"VEC4"}],"materials":[{"pbrMetallicRoughness":{"metallicFactor":0,"roughnessFactor":1,"baseColorTexture":{"index":0}},"alphaMode":"MASK","alphaCutoff":0.05,"doubleSided":true}],"textures":[{"sampler":0,"source":0}],"samplers":[{"magFilter":9728,"minFilter":9728,"wrapS":33071,"wrapT":33071}],"images":[{"mimeType":"image/png","uri":"data:image/png;base64,"}],"meshes":[{"primitives":[{"mode":4,"attributes":{"POSITION":0,"NORMAL":1,"TEXCOORD_0":2,"JOINTS_0":3,"WEIGHTS_0":4},"indices":5,"material":0}]}],"skins":[{"inverseBindMatrices":6,"joints":[38,0,4,1,2,3,17,16,15,6,5,8,7,10,9,12,11,14,13,30,29,28,19,18,21,20,23,22,25,24,27,26,37,33,32,31,36,35,34],"skeleton":38}],"animations":[{"name":"Idle","samplers":[{"input":7,"output":8,"interpolation":"LINEAR"},{"input":9,"output":10,"interpolation":"LINEAR"}],"channels":[{"sampler":0,"target":{"node":3,"path":"rotation"}},{"sampler":1,"target":{"node":0,"path":"scale"}}]},{"name":"Talk","samplers":[{"input":11,"output":12,"interpolation":"LINEAR"},{"input":13,"output":14,"interpolation":"LINEAR"},{"input":15,"output":16,"interpolation":"LINEAR"},{"input":17,"output":18,"interpolation":"LINEAR"},{"input":19,"output":20,"interpolation":"LINEAR"}],"channels":[{"sampler":0,"target":{"node":3,"path":"rotation"}},{"sampler":1,"target":{"node":1,"path":"translation"}},{"sampler":2,"target":{"node":1,"path":"scale"}},{"sampler":3,"target":{"node":2,"path":"translation"}},{"sampler":4,"target":{"node":2,"path":"scale"}}]},{"name":"Walk","samplers":[{"input":21,"output":22,"interpolation":"LINEAR"},{"input":23,"output":24,"interpolation":"LINEAR"},{"input":25,"output":26,"interpolation":"LINEAR"},{"input":27,"output":28,"interpolation":"LINEAR"},{"input":29,"output":30,"interpolation":"LINEAR"},{"input":31,"output":32,"interpolation":"LINEAR"},{"input":33,"output":34,"interpolation":"LINEAR"},{"input":35,"output":36,"interpolation":"LINEAR"},{"input":37,"output":38,"interpolation":"LINEAR"},{"input":39,"output":40,"interpolation":"LINEAR"},{"input":41,"output":42,"interpolation":"LINEAR"},{"input":43,"output":44,"interpolation":"LINEAR"}],"channels":[{"sampler":0,"target":{"node":38,"path":"rotation"}},{"sampler":1,"target":{"node":17,"path":"rotation"}},{"sampler":2,"target":{"node":16,"path":"rotation"}},{"sampler":3,"target":{"node":30,"path":"rotation"}},{"sampler":4,"target":{"node":29,"path":"rotation"}},{"sampler":5,"target":{"node":37,"path":"rotation"}},{"sampler":6,"target":{"node":33,"path":"rotation"}},{"sampler":7,"target":{"node":32,"path":"rotation"}},{"sampler":8,"target":{"node":31,"path":"rotation"}},{"sampler":9,"target":{"node":36,"path":"rotation"}},{"sampler":10,"target":{"node":35,"path":"rotation"}},{"sampler":11,"target":{"node":34,"path":"rotation"}}]},{"name":"UseRight","samplers":[{"input":45,"output":46,"interpolation":"LINEAR"},{"input":47,"output":48,"interpolation":"LINEAR"},{"input":49,"output":50,"interpolation":"LINEAR"}],"channels":[{"sampler":0,"target":{"node":17,"path":"rotation"}},{"sampler":1,"target":{"node":16,"path":"rotation"}},{"sampler":2,"target":{"node":15,"path":"rotation"}}]},{"name":"UseLeft","samplers":[{"input":51,"output":52,"interpolation":"LINEAR"},{"input":53,"output":54,"interpolation":"LINEAR"}],"channels":[{"sampler":0,"target":{"node":30,"path":"rotation"}},{"sampler":1,"target":{"node":29,"path":"rotation"}}]}]}