{"asset":{"version":"2.0","generator":"Blockbench 4.9.4 glTF exporter"},"scenes":[{"nodes":[1,3,6,9,12,15],"name":"blockbench_export"}],"scene":0,"nodes":[{"name":"Head"},{"translation":[0,1.5,0],"name":"Head","mesh":0,"children":[0],"skin":0},{"name":"Body"},{"translation":[0,1.5,0],"name":"Body","mesh":1,"children":[2],"skin":1},{"name":"RightArm2"},{"name":"RightArm","children":[4]},{"translation":[0.3125,1.375,0],"name":"RightArm","mesh":2,"children":[5],"skin":2},{"translation":[0,-0.25,0],"name":"LeftArm2"},{"name":"LeftArm","children":[7]},{"translation":[-0.3125,1.375,0],"name":"LeftArm","mesh":3,"children":[8],"skin":3},{"translation":[0,-0.375,0],"name":"RightLeg2"},{"name":"RightLeg","children":[10]},{"translation":[0.11875,0.75,0],"name":"RightLeg","mesh":4,"children":[11],"skin":4},{"translation":[0.0062500000000000056,-0.375,0],"name":"LeftLeg2"},{"name":"LeftLeg","children":[13]},{"translation":[-0.125,0.75,0],"name":"LeftLeg","mesh":5,"children":[14],"skin":5}],"bufferViews":[{"buffer":0,"byteOffset":0,"byteLength":864,"target":34962,"byteStride":12},{"buffer":0,"byteOffset":864,"byteLength":864,"target":34962,"byteStride":12},{"buffer":0,"byteOffset":1728,"byteLength":576,"target":34962,"byteStride":8},{"buffer":0,"byteOffset":2304,"byteLength":576,"target":34962,"byteStride":8},{"buffer":0,"byteOffset":2880,"byteLength":1152,"target":34962,"byteStride":16},{"buffer":0,"byteOffset":4032,"byteLength":216,"target":34963},{"buffer":0,"byteOffset":4248,"byteLength":576,"target":34962,"byteStride":12},{"buffer":0,"byteOffset":4824,"byteLength":576,"target":34962,"byteStride":12},{"buffer":0,"byteOffset":5400,"byteLength":384,"target":34962,"byteStride":8},{"buffer":0,"byteOffset":5784,"byteLength":384,"target":34962,"byteStride":8},{"buffer":0,"byteOffset":6168,"byteLength":768,"target":34962,"byteStride":16},{"buffer":0,"byteOffset":6936,"byteLength":144,"target":34963},{"buffer":0,"byteOffset":7080,"byteLength":1152,"target":34962,"byteStride":12},{"buffer":0,"byteOffset":8232,"byteLength":1152,"target":34962,"byteStride":12},{"buffer":0,"byteOffset":9384,"byteLength":768,"target":34962,"byteStride":8},{"buffer":0,"byteOffset":10152,"byteLength":768,"target":34962,"byteStride":8},{"buffer":0,"byteOffset":10920,"byteLength":1536,"target":34962,"byteStride":16},{"buffer":0,"byteOffset":12456,"byteLength":288,"target":34963},{"buffer":0,"byteOffset":12744,"byteLength":1152,"target":34962,"byteStride":12},{"buffer":0,"byteOffset":13896,"byteLength":1152,"target":34962,"byteStride":12},{"buffer":0,"byteOffset":15048,"byteLength":768,"target":34962,"byteStride":8},{"buffer":0,"byteOffset":15816,"byteLength":768,"target":34962,"byteStride":8},{"buffer":0,"byteOffset":16584,"byteLength":1536,"target":34962,"byteStride":16},{"buffer":0,"byteOffset":18120,"byteLength":288,"target":34963},{"buffer":0,"byteOffset":18408,"byteLength":1152,"target":34962,"byteStride":12},{"buffer":0,"byteOffset":19560,"byteLength":1152,"target":34962,"byteStride":12},{"buffer":0,"byteOffset":20712,"byteLength":768,"target":34962,"byteStride":8},{"buffer":0,"byteOffset":21480,"byteLength":768,"target":34962,"byteStride":8},{"buffer":0,"byteOffset":22248,"byteLength":1536,"target":34962,"byteStride":16},{"buffer":0,"byteOffset":23784,"byteLength":288,"target":34963},{"buffer":0,"byteOffset":24072,"byteLength":1152,"target":34962,"byteStride":12},{"buffer":0,"byteOffset":25224,"byteLength":1152,"target":34962,"byteStride":12},{"buffer":0,"byteOffset":26376,"byteLength":768,"target":34962,"byteStride":8},{"buffer":0,"byteOffset":27144,"byteLength":768,"target":34962,"byteStride":8},{"buffer":0,"byteOffset":27912,"byteLength":1536,"target":34962,"byteStride":16},{"buffer":0,"byteOffset":29448,"byteLength":288,"target":34963},{"buffer":0,"byteOffset":29736,"byteLength":64},{"buffer":0,"byteOffset":29800,"byteLength":64},{"buffer":0,"byteOffset":29864,"byteLength":128},{"buffer":0,"byteOffset":29992,"byteLength":128},{"buffer":0,"byteOffset":30120,"byteLength":128},{"buffer":0,"byteOffset":30248,"byteLength":128}],"buffers":[{"byteLength":30376,"uri":"data:application/octet-stream;base64,"}],"accessors":[{"bufferView":0,"componentType":5126,"count":72,"max":[0.28125,0.53125,0.28125],"min":[-0.28125,-0.59375,-0.28125],"type":"VEC3"},{"bufferView":1,"componentType":5126,"count":72,"max":[1,1,1],"min":[-1,-1,-1],"type":"VEC3"},{"bufferView":2,"componentType":5126,"count":72,"max":[0.999755859375,0.249755859375],"min":[0.000244140625,0.000244140625],"type":"VEC2"},{"bufferView":3,"componentType":5123,"count":72,"max":[0,0,0,0],"min":[0,0,0,0],"type":"VEC4"},{"bufferView":4,"componentType":5126,"count":72,"max":[0,1,0,0],"min":[0,1,0,0],"type":"VEC4"},{"bufferView":5,"componentType":5123,"count":108,"max":[71],"min":[0],"type":"SCALAR"},{"bufferView":6,"componentType":5126,"count":48,"max":[0.265625,0.015625,0.140625],"min":[-0.265625,-0.765625,-0.140625],"type":"VEC3"},{"bufferView":7,"componentType":5126,"count":48,"max":[1,1,1],"min":[-1,-1,-1],"type":"VEC3"},{"bufferView":8,"componentType":5126,"count":48,"max":[0.624755859375,0.749755859375],"min":[0.250244140625,0.250244140625],"type":"VEC2"},{"bufferView":9,"componentType":5123,"count":48,"max":[0,0,0,0],"min":[0,0,0,0],"type":"VEC4"},{"bufferView":10,"componentType":5126,"count":48,"max":[0,1,0,0],"min":[0,1,0,0],"type":"VEC4"},{"bufferView":11,"componentType":5123,"count":72,"max":[47],"min":[0],"type":"SCALAR"},{"bufferView":12,"componentType":5126,"count":96,"max":[0.140625,0.140625,0.140625],"min":[-0.078125,-1.015625,-0.140625],"type":"VEC3"},{"bufferView":13,"componentType":5126,"count":96,"max":[1,1,1],"min":[-1,-1,-1],"type":"VEC3"},{"bufferView":14,"componentType":5126,"count":96,"max":[0.843505859375,0.749755859375],"min":[0.625244140625,0.250244140625],"type":"VEC2"},{"bufferView":15,"componentType":5123,"count":96,"max":[0,1,0,0],"min":[0,0,0,0],"type":"VEC4"},{"bufferView":16,"componentType":5126,"count":96,"max":[0,1,0,0],"min":[0,1,0,0],"type":"VEC4"},{"bufferView":17,"componentType":5123,"count":144,"max":[95],"min":[0],"type":"SCALAR"},{"bufferView":18,"componentType":5126,"count":96,"max":[0.078125,0.140625,0.140625],"min":[-0.140625,-0.640625,-0.140625],"type":"VEC3"},{"bufferView":19,"componentType":5126,"count":96,"max":[1,1,1],"min":[-1,-1,-1],"type":"VEC3"},{"bufferView":20,"componentType":5126,"count":96,"max":[0.968505859375,0.999755859375],"min":[0.500244140625,0.750244140625],"type":"VEC2"},{"bufferView":21,"componentType":5123,"count":96,"max":[0,1,0,0],"min":[0,0,0,0],"type":"VEC4"},{"bufferView":22,"componentType":5126,"count":96,"max":[0,1,0,0],"min":[0,1,0,0],"type":"VEC4"},{"bufferView":23,"componentType":5123,"count":144,"max":[95],"min":[0],"type":"SCALAR"},{"bufferView":24,"componentType":5126,"count":96,"max":[0.140625,0.015625,0.140625],"min":[-0.140625,-0.765625,-0.140625],"type":"VEC3"},{"bufferView":25,"componentType":5126,"count":96,"max":[1,1,1],"min":[-1,-1,-1],"type":"VEC3"},{"bufferView":26,"componentType":5126,"count":96,"max":[0.249755859375,0.656005859375],"min":[0.000244140625,0.250244140625],"type":"VEC2"},{"bufferView":27,"componentType":5123,"count":96,"max":[0,1,0,0],"min":[0,0,0,0],"type":"VEC4"},{"bufferView":28,"componentType":5126,"count":96,"max":[0,1,0,0],"min":[0,1,0,0],"type":"VEC4"},{"bufferView":29,"componentType":5123,"count":144,"max":[95],"min":[0],"type":"SCALAR"},{"bufferView":30,"componentType":5126,"count":96,"max":[0.14687499403953552,0.015625,0.140625],"min":[-0.13437500596046448,-0.765625,-0.140625],"type":"VEC3"},{"bufferView":31,"componentType":5126,"count":96,"max":[1,1,1],"min":[-1,-1,-1],"type":"VEC3"},{"bufferView":32,"componentType":5126,"count":96,"max":[0.499755859375,0.906005859375],"min":[0.000244140625,0.750244140625],"type":"VEC2"},{"bufferView":33,"componentType":5123,"count":96,"max":[0,1,0,0],"min":[0,0,0,0],"type":"VEC4"},{"bufferView":34,"componentType":5126,"count":96,"max":[0,1,0,0],"min":[0,1,0,0],"type":"VEC4"},{"bufferView":35,"componentType":5123,"count":144,"max":[95],"min":[0],"type":"SCALAR"},{"bufferView":36,"componentType":5126,"count":1,"max":[1,0,0,0,0,1,0,0,0,0,1,0,0,0,0,1],"min":[1,0,0,0,0,1,0,0,0,0,1,0,0,0,0,1],"type":"MAT4"},{"bufferView":37,"componentType":5126,"count":1,"max":[1,0,0,0,0,1,0,0,0,0,1,0,0,0,0,1],"min":[1,0,0,0,0,1,0,0,0,0,1,0,0,0,0,1],"type":"MAT4"},{"bufferView":38,"componentType":5126,"count":2,"max":[1,0,0,0,0,1,0,0,0,0,1,0,0,0,0,1],"min":[1,0,0,0,0,1,0,0,0,0,1,0,0,0,0,1],"type":"MAT4"},{"bufferView":39,"componentType":5126,"count":2,"max":[1,0,0,0,0,1,0,0,0,0,1,0,0,0.25,0,1],"min":[1,0,0,0,0,1,0,0,0,0,1,0,0,0,0,1],"type":"MAT4"},{"bufferView":40,"componentType":5126,"count":2,"max":[1,0,0,0,0,1,0,0,0,0,1,0,0,0.375,0,1],"min":[1,0,0,0,0,1,0,0,0,0,1,0,0,0,0,1],"type":"MAT4"},{"bufferView":41,"componentType":5126,"count":2,"max":[1,0,0,0,0,1,0,0,0,0,1,0,0,0.375,0,1],"min":[1,0,0,0,0,1,0,0,0,0,1,0,-0.0062500000931322575,0,0,1],"type":"MAT4"}],"materials":[{"pbrMetallicRoughness":{"metallicFactor":0,"roughnessFactor":1,"baseColorTexture":{"index":0}},"alphaMode":"MASK","alphaCutoff":0.05,"doubleSided":true}],"textures":[{"sampler":0,"source":0}],"samplers":[{"magFilter":9728,"minFilter":9728,"wrapS":33071,"wrapT":33071}],"images":[{"mimeType":"image/png","uri":"data:image/png;base64,"}],"meshes":[{"primitives":[{"mode":4,"attributes":{"POSITION":0,"NORMAL":1,"TEXCOORD_0":2,"JOINTS_0":3,"WEIGHTS_0":4},"indices":5,"material":0}]},{"primitives":[{"mode":4,"attributes":{"POSITION":6,"NORMAL":7,"TEXCOORD_0":8,"JOINTS_0":9,"WEIGHTS_0":10},"indices":11,"material":0}]},{"primitives":[{"mode":4,"attributes":{"POSITION":12,"NORMAL":13,"TEXCOORD_0":14,"JOINTS_0":15,"WEIGHTS_0":16},"indices":17,"material":0}]},{"primitives":[{"mode":4,"attributes":{"POSITION":18,"NORMAL":19,"TEXCOORD_0":20,"JOINTS_0":21,"WEIGHTS_0":22},"indices":23,"material":0}]},{"primitives":[{"mode":4,"attributes":{"POSITION":24,"NORMAL":25,"TEXCOORD_0":26,"JOINTS_0":27,"WEIGHTS_0":28},"indices":29,"material":0}]},{"primitives":[{"mode":4,"attributes":{"POSITION":30,"NORMAL":31,"TEXCOORD_0":32,"JOINTS_0":33,"WEIGHTS_0":34},"indices":35,"material":0}]}],"skins":[{"inverseBindMatrices":36,"joints":[0],"skeleton":0},{"inverseBindMatrices":37,"joints":[2],"skeleton":2},{"inverseBindMatrices":38,"joints":[5,4],"skeleton":5},{"inverseBindMatrices":39,"joints":[8,7],"skeleton":8},{"inverseBindMatrices":40,"joints":[11,10],"skeleton":11},{"inverseBindMatrices":41,"joints":[14,13],"skeleton":14}]}